<?xml version="1.0" encoding="UTF-8" standalone="no"?>
<!-- Created with Inkscape (http://www.inkscape.org/) -->

<svg
   xmlns:dc="http://purl.org/dc/elements/1.1/"
   xmlns:cc="http://creativecommons.org/ns#"
   xmlns:rdf="http://www.w3.org/1999/02/22-rdf-syntax-ns#"
   xmlns:svg="http://www.w3.org/2000/svg"
   xmlns="http://www.w3.org/2000/svg"
   xmlns:sodipodi="http://sodipodi.sourceforge.net/DTD/sodipodi-0.dtd"
   xmlns:inkscape="http://www.inkscape.org/namespaces/inkscape"
   width="945.70081"
   height="560.51971"
   viewBox="0 0 250.21667 148.30419"
   version="1.1"
   id="svg8"
   inkscape:version="0.92.2 5c3e80d, 2017-08-06"
   sodipodi:docname="New_New_Figure_2.svg">
  <defs
     id="defs2">
    <clipPath
       id="clipPath65"
       clipPathUnits="userSpaceOnUse">
      <path
         inkscape:connector-curvature="0"
         id="path63"
         d="M 0,0 H 255.12 V 453.54 H 0 Z" />
    </clipPath>
    <clipPath
       id="clipPath77"
       clipPathUnits="userSpaceOnUse">
      <path
         inkscape:connector-curvature="0"
         id="path75"
         d="m 76.52,62.17 h 164.43 v 377.2 H 76.52 Z" />
    </clipPath>
    <clipPath
       id="clipPath309"
       clipPathUnits="userSpaceOnUse">
      <path
         inkscape:connector-curvature="0"
         id="path307"
         d="M 255.12,0 H 510.24 V 453.54 H 255.12 Z" />
    </clipPath>
    <clipPath
       id="clipPath321"
       clipPathUnits="userSpaceOnUse">
      <path
         inkscape:connector-curvature="0"
         id="path319"
         d="m 318.55,62.17 h 177.51 v 377.2 H 318.55 Z" />
    </clipPath>
    <clipPath
       id="clipPath553"
       clipPathUnits="userSpaceOnUse">
      <path
         inkscape:connector-curvature="0"
         id="path551"
         d="M 510.24,0 H 765.36 V 453.54 H 510.24 Z" />
    </clipPath>
    <clipPath
       id="clipPath565"
       clipPathUnits="userSpaceOnUse">
      <path
         inkscape:connector-curvature="0"
         id="path563"
         d="M 573.41,59.71 H 751.18 V 439.37 H 573.41 Z" />
    </clipPath>
    <clipPath
       id="clipPath1163"
       clipPathUnits="userSpaceOnUse">
      <path
         inkscape:connector-curvature="0"
         id="path1161"
         d="M 0,0 H 255.12 V 453.54 H 0 Z" />
    </clipPath>
    <clipPath
       id="clipPath1175"
       clipPathUnits="userSpaceOnUse">
      <path
         inkscape:connector-curvature="0"
         id="path1173"
         d="m 76.52,62.17 h 164.43 v 377.2 H 76.52 Z" />
    </clipPath>
    <clipPath
       id="clipPath1407"
       clipPathUnits="userSpaceOnUse">
      <path
         inkscape:connector-curvature="0"
         id="path1405"
         d="M 255.12,0 H 510.24 V 453.54 H 255.12 Z" />
    </clipPath>
    <clipPath
       id="clipPath1419"
       clipPathUnits="userSpaceOnUse">
      <path
         inkscape:connector-curvature="0"
         id="path1417"
         d="m 318.55,62.17 h 177.51 v 377.2 H 318.55 Z" />
    </clipPath>
    <clipPath
       id="clipPath1651"
       clipPathUnits="userSpaceOnUse">
      <path
         inkscape:connector-curvature="0"
         id="path1649"
         d="M 510.24,0 H 765.36 V 453.54 H 510.24 Z" />
    </clipPath>
    <clipPath
       id="clipPath1663"
       clipPathUnits="userSpaceOnUse">
      <path
         inkscape:connector-curvature="0"
         id="path1661"
         d="M 573.41,59.71 H 751.18 V 439.37 H 573.41 Z" />
    </clipPath>
  </defs>
  <sodipodi:namedview
     id="base"
     pagecolor="#ffffff"
     bordercolor="#666666"
     borderopacity="1.0"
     inkscape:pageopacity="0.0"
     inkscape:pageshadow="2"
     inkscape:zoom="0.49497475"
     inkscape:cx="491.67461"
     inkscape:cy="311.36355"
     inkscape:document-units="mm"
     inkscape:current-layer="layer1"
     showgrid="false"
     units="px"
     inkscape:pagecheckerboard="true"
     inkscape:window-width="1280"
     inkscape:window-height="705"
     inkscape:window-x="0"
     inkscape:window-y="1"
     inkscape:window-maximized="1" />
  <metadata
     id="metadata5">
    <rdf:RDF>
      <cc:Work
         rdf:about="">
        <dc:format>image/svg+xml</dc:format>
        <dc:type
           rdf:resource="http://purl.org/dc/dcmitype/StillImage" />
        <dc:title></dc:title>
      </cc:Work>
    </rdf:RDF>
  </metadata>
  <g
     inkscape:label="Layer 1"
     inkscape:groupmode="layer"
     id="layer1"
     transform="translate(0,-148.69585)">
    <g
       transform="matrix(0.3201834,0,0,-0.3201834,2.5823405,296.18815)"
       inkscape:label="Figura2"
       id="g1135">
      <g
         id="g1137" />
      <g
         id="g1139" />
      <g
         id="g1141" />
      <g
         id="g1143" />
      <g
         id="g1145" />
      <g
         id="g1147" />
      <g
         id="g1149" />
      <g
         id="g1151" />
      <g
         id="g1153" />
      <g
         id="g1155" />
      <g
         id="g1157">
        <g
           clip-path="url(#clipPath1163)"
           id="g1159">
          <path
             inkscape:connector-curvature="0"
             id="path1165"
             style="fill:#ffffff;fill-opacity:1;fill-rule:nonzero;stroke:#ffffff;stroke-width:1.07000005;stroke-linecap:round;stroke-linejoin:round;stroke-miterlimit:10;stroke-dasharray:none;stroke-opacity:1"
             d="M 0,0 H 255.12 V 453.54 H 0 Z" />
        </g>
      </g>
      <g
         id="g1167" />
      <g
         id="g1169">
        <g
           clip-path="url(#clipPath1175)"
           id="g1171">
          <path
             inkscape:connector-curvature="0"
             id="path1177"
             style="fill:#ffffff;fill-opacity:1;fill-rule:nonzero;stroke:none"
             d="m 76.52,62.17 h 164.43 v 377.2 H 76.52 Z" />
          <path
             inkscape:connector-curvature="0"
             id="path1179"
             style="fill:none;stroke:#000000;stroke-width:3.20000005;stroke-linecap:butt;stroke-linejoin:round;stroke-miterlimit:10;stroke-dasharray:none;stroke-opacity:1"
             d="m 83.99,250.59 6.96,-0.57 0.1,-0.02 7.35,-2.14 0.44,-0.23 2.37,-1.49 1.88,-1.6 0.69,-0.7 0.63,-0.69 0.19,-0.22 0.37,-0.45 0.27,-0.33 0.07,-0.09 1,-1.36 1.42,-2.25 1.06,-1.93 0.17,-0.34 2.23,-4.97 1.83,-5.02 0.06,-0.16 0.18,-0.57 0.71,-2.21 0.77,-2.6 0.01,-0.05 1.41,-5.22 0.68,-2.73 0.42,-1.76 0.36,-1.55 0.1,-0.43 0.4,-1.81 0.23,-1.04 0.09,-0.4 0.27,-1.26 0.06,-0.32 1.38,-6.81 0.4,-2.07 0.04,-0.22 0.14,-0.73 0.15,-0.84 0.32,-1.74 v 0 l 0.12,-0.62 0.38,-2.16 0.01,-0.05 0.14,-0.81 0.18,-1 0.93,-5.44 0.55,-3.29 0.64,-3.97 0.03,-0.23 0.07,-0.45 0.02,-0.08 0.24,-1.5 0.08,-0.55 0.19,-1.2 0.02,-0.1 0.31,-2.04 0.11,-0.69 0.33,-2.13 0.07,-0.5 0.42,-2.77 0.08,-0.49 0.07,-0.5 0.27,-1.79 0.05,-0.36 0.04,-0.28 0.54,-3.6 0.01,-0.1 0.05,-0.34 0.19,-1.23 0.22,-1.55 0.05,-0.33 0.26,-1.78 0.33,-2.25 0.25,-1.73 v -0.03 l 0.57,-3.89 0.03,-0.21 0.07,-0.47 0.03,-0.23 0.06,-0.36 0.05,-0.38 0.01,-0.06 0.42,-2.87 0.25,-1.78 0.06,-0.35 0.31,-2.14 0.08,-0.53 0.5,-3.44 0.04,-0.26 0.02,-0.11 0.16,-1.14 0.17,-1.11 v -0.03 l 0.04,-0.26 0.21,-1.4 0.13,-0.9 0.21,-1.34 0.02,-0.16 0.08,-0.5 0.04,-0.31 0.04,-0.25 0.12,-0.79 0.08,-0.51 0.02,-0.16 0.2,-1.29 0.11,-0.7 0.18,-1.14 0.02,-0.12 0.05,-0.35 0.21,-1.31 0.03,-0.23 0.06,-0.34 0.05,-0.32 0.1,-0.63 0.04,-0.27 0.03,-0.22 0.2,-1.18 v -0.05 l 0.08,-0.46 0.07,-0.45 0.13,-0.81 0.1,-0.61 0.45,-2.65 0.17,-1.01 0.1,-0.61 0.12,-0.65 0.06,-0.37 0.11,-0.64 0.2,-1.07 0.04,-0.24 0.01,-0.05 0.07,-0.41 0.34,-1.82 0.2,-1.06 0.07,-0.37 0.11,-0.58 0.14,-0.7 0.01,-0.05 0.09,-0.5 0.02,-0.06 0.26,-1.29 0.1,-0.5 0.17,-0.78 0.05,-0.25 0.03,-0.14 0.05,-0.25 0.08,-0.37 0.03,-0.11 0.01,-0.07 0.14,-0.62 0.14,-0.63 0.11,-0.46 0.05,-0.23 0.08,-0.34 0.04,-0.14 0.1,-0.42 0.05,-0.22 0.03,-0.12 0.04,-0.16 0.07,-0.26 0.03,-0.13 v -0.02 l 0.04,-0.13 0.18,-0.71 0.09,-0.33 0.35,-1.28 0.23,-0.8 0.22,-0.71 0.3,-0.89 0.07,-0.22 0.05,-0.12 0.14,-0.4 0.07,-0.18 0.03,-0.07 v -0.01 l 0.01,-0.03 0.1,-0.25 0.07,-0.17 0.1,-0.24 0.01,-0.04 0.15,-0.35 0.04,-0.08 0.03,-0.06 0.03,-0.06 0.17,-0.36 0.01,-0.03 0.01,-0.02 0.15,-0.28 0.02,-0.04 0.09,-0.16 0.02,-0.04 0.04,-0.07 0.01,-0.01 0.01,-0.01 v -0.02 l 0.01,-0.01 0.31,-0.47 0.17,-0.23 0.02,-0.01 0.03,-0.04 0.05,-0.06 0.04,-0.05 0.27,-0.26 0.07,-0.05 0.05,-0.04 0.02,-0.01 0.08,-0.05 0.09,-0.05 0.04,-0.03 0.04,-0.01 0.02,-0.01 0.02,-0.01 0.1,-0.04 0.09,-0.02 0.04,-0.01 0.07,-0.01 h 0.02 v 0 h 0.06 0.01 0.01 0.06 l 0.13,0.01 0.12,0.03 0.12,0.05 h 0.01 l 0.14,0.08 0.09,0.05 0.22,0.19 h 0.01 l 0.05,0.05 0.06,0.06 0.01,0.01 v 0 l 0.02,0.02 v 0.01 l 0.03,0.03 0.04,0.04 0.03,0.04 0.17,0.22 0.33,0.52 0.05,0.08 0.21,0.4 0.01,0.01 0.07,0.15 0.08,0.17 0.21,0.5 0.01,0.03 0.09,0.22 0.14,0.37 0.02,0.05 0.07,0.2 0.04,0.12 0.01,0.02 0.27,0.83 0.01,0.01 0.11,0.37 0.02,0.05 0.05,0.19 0.06,0.19 0.01,0.04 0.03,0.11 0.06,0.21 0.26,0.95 0.15,0.62 0.07,0.26 0.07,0.31 0.02,0.07 0.05,0.23 0.22,0.95 0.07,0.32 0.06,0.29 0.13,0.65 v 0 l 0.08,0.35 0.01,0.06 0.11,0.57 0.06,0.32 0.13,0.66 0.01,0.06 0.06,0.33 0.07,0.38 0.03,0.17 0.01,0.06 0.13,0.68 0.1,0.56 0.02,0.14 0.05,0.28 0.01,0.06 0.05,0.3 v 0.03 l 0.02,0.12 0.01,0.06 0.21,1.25 0.09,0.56 0.08,0.5 0.02,0.16 0.11,0.7 0.05,0.3 0.05,0.34 0.14,0.99 0.06,0.41 0.11,0.76 0.01,0.05 0.04,0.32 0.06,0.42 v 0 l 0.02,0.11 0.4,2.95 0.04,0.36 0.03,0.18 0.12,0.93 v 0.02 l 0.02,0.19 0.03,0.2 0.06,0.49 0.02,0.17 0.01,0.08 0.1,0.77 v 0.05 l 0.11,0.87 0.01,0.1 0.01,0.06 0.17,1.42 v 0.02 l 0.15,1.29 0.09,0.72 0.07,0.67 0.06,0.46 0.01,0.12 0.13,1.14 0.14,1.26 0.08,0.8 0.02,0.18 0.02,0.16 0.01,0.1 0.04,0.37 v 0.03 l 0.02,0.16 0.12,1.18 0.02,0.14 0.14,1.34 0.18,1.79 0.05,0.45 0.16,1.61 v 0.06 l 0.01,0.02 0.06,0.68 0.03,0.29 0.06,0.57 0.01,0.14 v 0.03 l 0.01,0.08 0.05,0.46 0.04,0.49 0.08,0.77 0.03,0.35 0.21,2.24 0.04,0.33 0.07,0.84 0.04,0.34 0.08,0.93 0.01,0.1 0.03,0.36 0.22,2.35 0.19,2.14 0.1,1.13 0.02,0.33 0.07,0.78 0.01,0.09 0.06,0.65 0.01,0.19 0.05,0.52 0.02,0.24 v 0 0.02 l 0.01,0.16 0.22,2.5 0.37,4.43 0.02,0.28 0.02,0.28 0.1,1.17 0.32,4 0.05,0.67 0.03,0.32 0.16,2.1 0.11,1.4 0.01,0.15 0.02,0.23 0.06,0.78 0.1,1.26 0.01,0.07 0.05,0.67 0.02,0.3 0.03,0.44 0.02,0.24 0.03,0.43 0.04,0.49 0.13,1.68 0.02,0.32 0.02,0.21 0.02,0.22 v 0.02 l 0.01,0.16 0.02,0.25 0.12,1.68 0.01,0.12 0.04,0.54 0.08,1 v 0.02 l 0.13,1.74 0.03,0.4 0.09,1.24 v 0.03 l 0.15,2.12 0.03,0.4 0.09,1.12 0.11,1.64 v 0 l 0.07,0.93 v 0.02 l 0.04,0.53 0.06,0.82 0.04,0.65 0.04,0.46 0.02,0.34 0.04,0.56 0.02,0.26 0.06,0.84 0.22,3.15 0.01,0.19 0.05,0.63 0.04,0.54 0.03,0.41 0.03,0.47 v 0.09 l 0.01,0.14 0.08,1.04 0.05,0.83 0.01,0.11 0.19,2.71 0.03,0.44 0.04,0.56 0.03,0.46 0.04,0.64 0.01,0.12 0.17,2.45 0.16,2.4 0.06,0.82 0.12,1.76 0.04,0.62 0.09,1.4 0.1,1.45 0.03,0.46 0.04,0.59 0.04,0.59 0.01,0.13 0.14,2.08 0.2,3.03 0.01,0.1 0.03,0.49 0.01,0.17 0.16,2.4 0.09,1.4 0.06,0.95 0.05,0.71 0.09,1.37 0.03,0.39 v 0.12 l 0.02,0.23 0.01,0.09 0.11,1.69 0.02,0.34 0.03,0.54 0.09,1.31 0.03,0.5 0.15,2.22 0.08,1.22 0.06,0.93 0.04,0.57 0.01,0.2 0.06,1.01 0.15,2.24 0.13,1.99 0.18,2.72 0.14,2.14 v 0.05 l 0.09,1.39 0.07,1.06 0.16,2.49 0.05,0.81 0.01,0.1 0.01,0.16 0.01,0.11 0.14,2.25 v 0.04 l 0.04,0.5 0.01,0.23 0.04,0.59 0.23,3.55 0.03,0.48 0.04,0.64 0.07,1.11 0.05,0.65 v 0.11 l 0.2,3.1 0.04,0.5 0.03,0.58 0.02,0.22 0.06,0.95 0.01,0.2 0.03,0.34 0.31,4.79 0.06,1 0.01,0.04 0.14,2.15 0.08,1.26 0.04,0.63 0.03,0.42 0.01,0.21 0.03,0.36 0.1,1.55 0.08,1.24 0.11,1.71 0.06,0.96 0.08,1.22 0.1,1.45 0.19,2.88 0.02,0.27 0.06,0.98 0.03,0.44 0.03,0.4 0.17,2.6 0.03,0.38 0.08,1.17 0.18,2.72 0.04,0.58 0.2,2.99 0.06,0.87 0.09,1.27 0.15,2.25 0.04,0.58 0.18,2.56 0.04,0.66 0.03,0.36 0.05,0.67 0.04,0.63 0.02,0.35 0.14,1.99 0.05,0.69 0.03,0.41 0.04,0.61 v 0.04 l 0.04,0.51 0.08,1.2 0.12,1.58 v 0 l 0.06,0.97 0.03,0.29 0.06,0.94 0.01,0.17 0.05,0.66 0.03,0.37 v 0.07 l 0.05,0.71 0.01,0.14 0.04,0.56 0.13,1.77 0.05,0.62 0.21,2.9 0.04,0.55 0.02,0.36 0.02,0.15 0.02,0.33 0.02,0.25 0.06,0.81 0.02,0.23 0.02,0.29 0.01,0.18 0.1,1.39 0.02,0.2 0.07,0.98 0.04,0.49 0.06,0.81 v 0.03 l 0.02,0.3 0.04,0.49 0.01,0.14 0.1,1.26 0.02,0.33 0.11,1.36 0.04,0.54 0.09,1.25 0.01,0.16 0.09,1.12 0.02,0.3 0.05,0.61 0.05,0.68 0.06,0.75 0.07,0.82 0.04,0.57 0.07,0.79 v 0.02 l 0.06,0.75 0.06,0.76 0.04,0.59 0.02,0.25 0.1,1.2 0.04,0.51 0.05,0.57 0.01,0.2 0.01,0.03 v 0.06 l 0.22,2.65 v 0.03 l 0.07,0.81 0.05,0.63 0.03,0.37 0.06,0.72 0.01,0.07 0.04,0.49 0.02,0.26 0.14,1.63 0.02,0.26 0.09,1.08 0.05,0.53 0.05,0.63 0.05,0.53 0.07,0.84 0.02,0.16 0.02,0.25 v 0.04 l 0.02,0.16 0.02,0.27 0.02,0.23 0.02,0.2 0.03,0.32 0.16,1.77 0.07,0.81 0.07,0.82 v 0.03 l 0.1,1.08 0.1,1.03 0.06,0.7 0.08,0.84 0.02,0.21 0.06,0.63 0.07,0.69 0.14,1.45 0.28,2.9 0.05,0.52 0.01,0.12 0.1,1.01 0.13,1.28 0.03,0.27 0.06,0.56 0.01,0.07 0.01,0.15 0.1,0.97 0.02,0.18 0.05,0.5 0.03,0.21 0.01,0.13 0.05,0.52 0.07,0.66 0.22,1.99 0.04,0.36 0.07,0.58 0.21,1.86 0.01,0.16 0.27,2.3 0.05,0.38 0.02,0.2 0.01,0.11 0.02,0.1 0.02,0.2 0.02,0.17 0.09,0.77 0.04,0.25 0.18,1.44 0.03,0.27 0.08,0.62 0.01,0.08 0.05,0.42 0.03,0.17 0.02,0.18 0.02,0.14 0.03,0.23 0.01,0.12 0.03,0.23 0.11,0.84 0.04,0.3 0.02,0.1 v 0.02 l 0.01,0.06 0.02,0.18 0.11,0.8 0.01,0.07 0.02,0.12 v 0 l 0.02,0.14 0.03,0.21 0.02,0.14 0.22,1.53 0.04,0.29 0.11,0.71 0.01,0.09 0.06,0.38 0.08,0.52 0.12,0.79 0.01,0.06 0.11,0.74 0.01,0.01 0.25,1.56 0.03,0.15 0.15,0.87 0.02,0.12 0.02,0.1 0.05,0.33 0.19,1.01 0.36,1.87 0.17,0.84 0.07,0.31 0.13,0.63 0.1,0.44 0.08,0.36 0.03,0.13 0.08,0.31 0.11,0.45 0.02,0.09 0.01,0.07 0.03,0.09 v 0.01 l 0.1,0.41 0.12,0.46 0.09,0.32 0.38,1.32 0.1,0.31 0.1,0.28 0.03,0.11 0.09,0.25 0.07,0.22 0.02,0.03 0.16,0.44 0.03,0.08 0.17,0.41 0.05,0.11 0.07,0.16 0.04,0.09 v 0 l 0.1,0.21 0.01,0.02 0.1,0.19 v 0.01 l 0.01,0.02 0.06,0.11 0.06,0.12 0.06,0.09 0.02,0.05 0.03,0.05 0.12,0.18 0.02,0.04 0.01,0.02 0.09,0.12 0.02,0.03 0.09,0.12 0.02,0.03 0.09,0.11 0.06,0.07 0.03,0.02 v 0.01 l 0.04,0.04 v 0 l 0.01,0.01 0.17,0.16 v 0 l 0.03,0.03 0.04,0.03 0.29,0.18 0.09,0.03 0.1,0.03 0.13,0.03 h 0.08 0.07 0.1 l 0.01,-0.01 0.1,-0.01 0.06,-0.02 h 0.01 l 0.02,-0.01 0.04,-0.01 0.01,-0.01 0.04,-0.01 0.06,-0.03 v 0 l 0.03,-0.01 0.15,-0.09 0.07,-0.05 0.01,-0.01 0.03,-0.02 0.02,-0.02 0.21,-0.18 0.39,-0.46 0.01,-0.02 0.04,-0.05 v -0.01 l 0.05,-0.05 0.01,-0.03 0.01,-0.01 0.14,-0.21 0.04,-0.07 0.1,-0.16 v -0.01 l 0.05,-0.08 0.07,-0.14 0.07,-0.11 0.06,-0.13 0.04,-0.09 0.24,-0.49 0.17,-0.38 0.03,-0.07 0.09,-0.21 0.18,-0.48 0.1,-0.27 0.08,-0.19 0.1,-0.3 0.02,-0.04 0.04,-0.12 0.05,-0.15 0.06,-0.16 0.03,-0.1 0.01,-0.03 0.11,-0.33 0.12,-0.4 0.02,-0.03 0.05,-0.19 0.13,-0.42 0.04,-0.14 0.14,-0.46 0.2,-0.72 0.19,-0.71 0.06,-0.24 0.03,-0.08 0.07,-0.3 0.08,-0.28 0.01,-0.07 0.02,-0.05 0.08,-0.34 0.04,-0.14 0.15,-0.63 0.03,-0.11 0.17,-0.71 0.01,-0.07 0.12,-0.49 0.05,-0.23 0.26,-1.16 v -0.01 l 0.16,-0.75 0.07,-0.32 0.01,-0.02 0.03,-0.15 0.13,-0.65 0.23,-1.08 0.25,-1.24 v -0.04 l 0.08,-0.4 0.05,-0.27 0.03,-0.11 0.08,-0.46 0.4,-2.08 0.11,-0.61 0.06,-0.34 0.04,-0.19 0.26,-1.47 0.02,-0.09 0.15,-0.88 0.08,-0.44 0.2,-1.16 0.04,-0.2 0.11,-0.65 0.04,-0.28 0.01,-0.06 0.04,-0.21 0.09,-0.55 0.02,-0.07 0.07,-0.47 0.08,-0.47 0.25,-1.49 0.05,-0.31 0.2,-1.21 0.15,-0.97 0.25,-1.58 0.11,-0.65 0.26,-1.68 0.27,-1.73 0.24,-1.56 0.21,-1.41 0.1,-0.65 v 0 l 0.03,-0.19 0.61,-4.05 0.02,-0.11 0.1,-0.7 0.44,-2.94 0.09,-0.65 0.22,-1.52 0.01,-0.01 0.01,-0.13 0.49,-3.33 0.2,-1.34 0.17,-1.23 0.33,-2.23 0.11,-0.78 0.17,-1.14 0.1,-0.72 0.08,-0.54 0.01,-0.06 0.05,-0.38 0.28,-1.87 0.09,-0.64 0.1,-0.68 0.08,-0.54 1.12,-7.66 0.18,-1.22 0.07,-0.48 0.06,-0.44 0.05,-0.29 0.38,-2.55 0.33,-2.22 0.08,-0.52 0.34,-2.26 0.12,-0.78 0.05,-0.31 0.06,-0.38 0.1,-0.66 0.01,-0.09 0.05,-0.29 0.17,-1.1 0.06,-0.42 0.06,-0.33 0.07,-0.47 0.17,-1.07 0.21,-1.38 0.15,-0.94 0.34,-2.14 0.25,-1.53 v -0.01 l 0.3,-1.84 0.13,-0.76 0.04,-0.28 0.1,-0.57 0.64,-3.78 0.14,-0.87 0.25,-1.41 0.26,-1.47 0.29,-1.65 0.84,-4.58 0.07,-0.38 0.13,-0.67 0.13,-0.71 0.3,-1.54 0.32,-1.64 0.41,-2.06 0.23,-1.11 0.1,-0.51 0.06,-0.29 0.44,-2.05 0.26,-1.22 0.38,-1.71 0.43,-1.89 0.26,-1.13 0.37,-1.52 0.07,-0.31 0.48,-1.93 1,-3.78 0.62,-2.21 0.52,-1.78 0.28,-0.91 2.75,-7.82 0.28,-0.67 0.53,-1.25 0.05,-0.11 0.34,-0.76 0.33,-0.72 0.4,-0.82 0.11,-0.23 1.6,-2.93 0.27,-0.43 1.17,-1.77 0.36,-0.49 0.09,-0.13 1.56,-1.88 2.24,-2.11 1.48,-1.08 1.21,-0.73 1.7,-0.82 0.66,-0.27 2.66,-0.82 5.97,-0.93" />
          <path
             inkscape:connector-curvature="0"
             id="path1181"
             style="fill:none;stroke:#000000;stroke-width:1.07000005;stroke-linecap:butt;stroke-linejoin:round;stroke-miterlimit:10;stroke-dasharray:4.27, 4.27;stroke-dashoffset:0;stroke-opacity:1"
             d="m 160.79,62.17 v 377.2" />
          <path
             inkscape:connector-curvature="0"
             id="path1183"
             style="fill:none;stroke:#000000;stroke-width:1.07000005;stroke-linecap:butt;stroke-linejoin:round;stroke-miterlimit:10;stroke-dasharray:4.27, 4.27;stroke-dashoffset:0;stroke-opacity:1"
             d="M 76.52,250.77 H 240.94" />
          <path
             inkscape:connector-curvature="0"
             id="path1185"
             style="fill:none;stroke:#333333;stroke-width:3.20000005;stroke-linecap:round;stroke-linejoin:round;stroke-miterlimit:10;stroke-dasharray:none;stroke-opacity:1"
             d="m 76.52,62.17 h 164.43 v 377.2 H 76.52 Z" />
        </g>
      </g>
      <g
         id="g1187" />
      <g
         id="g1189" />
      <g
         id="g1191" />
      <g
         id="g1193" />
      <g
         id="g1195" />
      <g
         id="g1197" />
      <g
         id="g1199" />
      <g
         id="g1201" />
      <g
         id="g1203" />
      <g
         id="g1205" />
      <g
         id="g1207" />
      <g
         id="g1209" />
      <g
         id="g1211" />
      <g
         id="g1213" />
      <g
         id="g1215" />
      <g
         id="g1217">
        <text
           id="text1221"
           style="font-variant:normal;font-weight:normal;font-size:16px;font-family:Helvetica;-inkscape-font-specification:Helvetica;writing-mode:lr-tb;fill:#4d4d4d;fill-opacity:1;fill-rule:nonzero;stroke:none"
           transform="matrix(1,0,0,-1,40,118.61)">
          <tspan
             id="tspan1219"
             sodipodi:role="line"
             y="0"
             x="0 9.3439999 18.24 22.688">−1.0</tspan>
        </text>
        <text
           id="text1225"
           style="font-variant:normal;font-weight:normal;font-size:16px;font-family:Helvetica;-inkscape-font-specification:Helvetica;writing-mode:lr-tb;fill:#4d4d4d;fill-opacity:1;fill-rule:nonzero;stroke:none"
           transform="matrix(1,0,0,-1,40,181.82)">
          <tspan
             id="tspan1223"
             sodipodi:role="line"
             y="0"
             x="0 9.3439999 18.24 22.688">−0.5</tspan>
        </text>
        <text
           id="text1229"
           style="font-variant:normal;font-weight:normal;font-size:16px;font-family:Helvetica;-inkscape-font-specification:Helvetica;writing-mode:lr-tb;fill:#4d4d4d;fill-opacity:1;fill-rule:nonzero;stroke:none"
           transform="matrix(1,0,0,-1,49.35,245.03)">
          <tspan
             id="tspan1227"
             sodipodi:role="line"
             y="0"
             x="0 8.8959999 13.344">0.0</tspan>
        </text>
        <text
           id="text1233"
           style="font-variant:normal;font-weight:normal;font-size:16px;font-family:Helvetica;-inkscape-font-specification:Helvetica;writing-mode:lr-tb;fill:#4d4d4d;fill-opacity:1;fill-rule:nonzero;stroke:none"
           transform="matrix(1,0,0,-1,49.35,308.24)">
          <tspan
             id="tspan1231"
             sodipodi:role="line"
             y="0"
             x="0 8.8959999 13.344">0.5</tspan>
        </text>
        <text
           id="text1237"
           style="font-variant:normal;font-weight:normal;font-size:16px;font-family:Helvetica;-inkscape-font-specification:Helvetica;writing-mode:lr-tb;fill:#4d4d4d;fill-opacity:1;fill-rule:nonzero;stroke:none"
           transform="matrix(1,0,0,-1,49.35,371.44)">
          <tspan
             id="tspan1235"
             sodipodi:role="line"
             y="0"
             x="0 8.8959999 13.344">1.0</tspan>
        </text>
      </g>
      <g
         id="g1239" />
      <g
         id="g1241">
        <path
           inkscape:connector-curvature="0"
           id="path1243"
           style="fill:none;stroke:#333333;stroke-width:1.07000005;stroke-linecap:butt;stroke-linejoin:round;stroke-miterlimit:10;stroke-dasharray:none;stroke-opacity:1"
           d="m 73.78,124.35 h 2.74" />
        <path
           inkscape:connector-curvature="0"
           id="path1245"
           style="fill:none;stroke:#333333;stroke-width:1.07000005;stroke-linecap:butt;stroke-linejoin:round;stroke-miterlimit:10;stroke-dasharray:none;stroke-opacity:1"
           d="m 73.78,187.56 h 2.74" />
        <path
           inkscape:connector-curvature="0"
           id="path1247"
           style="fill:none;stroke:#333333;stroke-width:1.07000005;stroke-linecap:butt;stroke-linejoin:round;stroke-miterlimit:10;stroke-dasharray:none;stroke-opacity:1"
           d="m 73.78,250.77 h 2.74" />
        <path
           inkscape:connector-curvature="0"
           id="path1249"
           style="fill:none;stroke:#333333;stroke-width:1.07000005;stroke-linecap:butt;stroke-linejoin:round;stroke-miterlimit:10;stroke-dasharray:none;stroke-opacity:1"
           d="m 73.78,313.98 h 2.74" />
        <path
           inkscape:connector-curvature="0"
           id="path1251"
           style="fill:none;stroke:#333333;stroke-width:1.07000005;stroke-linecap:butt;stroke-linejoin:round;stroke-miterlimit:10;stroke-dasharray:none;stroke-opacity:1"
           d="m 73.78,377.19 h 2.74" />
      </g>
      <g
         id="g1253" />
      <g
         id="g1255" />
      <g
         id="g1257" />
      <g
         id="g1259" />
      <g
         id="g1261" />
      <g
         id="g1263" />
      <g
         id="g1265" />
      <g
         id="g1267" />
      <g
         id="g1269" />
      <g
         id="g1271">
        <path
           inkscape:connector-curvature="0"
           id="path1273"
           style="fill:none;stroke:#333333;stroke-width:1.07000005;stroke-linecap:butt;stroke-linejoin:round;stroke-miterlimit:10;stroke-dasharray:none;stroke-opacity:1"
           d="m 78.88,59.43 v 2.74" />
        <path
           inkscape:connector-curvature="0"
           id="path1275"
           style="fill:none;stroke:#333333;stroke-width:1.07000005;stroke-linecap:butt;stroke-linejoin:round;stroke-miterlimit:10;stroke-dasharray:none;stroke-opacity:1"
           d="m 119.84,59.43 v 2.74" />
        <path
           inkscape:connector-curvature="0"
           id="path1277"
           style="fill:none;stroke:#333333;stroke-width:1.07000005;stroke-linecap:butt;stroke-linejoin:round;stroke-miterlimit:10;stroke-dasharray:none;stroke-opacity:1"
           d="m 160.79,59.43 v 2.74" />
        <path
           inkscape:connector-curvature="0"
           id="path1279"
           style="fill:none;stroke:#333333;stroke-width:1.07000005;stroke-linecap:butt;stroke-linejoin:round;stroke-miterlimit:10;stroke-dasharray:none;stroke-opacity:1"
           d="m 201.74,59.43 v 2.74" />
      </g>
      <g
         id="g1281" />
      <g
         id="g1283">
        <text
           id="text1287"
           style="font-variant:normal;font-weight:normal;font-size:16px;font-family:Helvetica;-inkscape-font-specification:Helvetica;writing-mode:lr-tb;fill:#4d4d4d;fill-opacity:1;fill-rule:nonzero;stroke:none"
           transform="matrix(1,0,0,-1,65.31,45.75)">
          <tspan
             id="tspan1285"
             sodipodi:role="line"
             y="0"
             x="0 9.3439999 18.24">−10</tspan>
        </text>
        <text
           id="text1291"
           style="font-variant:normal;font-weight:normal;font-size:16px;font-family:Helvetica;-inkscape-font-specification:Helvetica;writing-mode:lr-tb;fill:#4d4d4d;fill-opacity:1;fill-rule:nonzero;stroke:none"
           transform="matrix(1,0,0,-1,110.72,45.75)">
          <tspan
             id="tspan1289"
             sodipodi:role="line"
             y="0"
             x="0 9.3439999">−5</tspan>
        </text>
        <text
           id="text1295"
           style="font-variant:normal;font-weight:normal;font-size:16px;font-family:Helvetica;-inkscape-font-specification:Helvetica;writing-mode:lr-tb;fill:#4d4d4d;fill-opacity:1;fill-rule:nonzero;stroke:none"
           transform="matrix(1,0,0,-1,156.34,45.75)">
          <tspan
             id="tspan1293"
             y="0"
             x="0">0</tspan>
        </text>
        <text
           id="text1299"
           style="font-variant:normal;font-weight:normal;font-size:16px;font-family:Helvetica;-inkscape-font-specification:Helvetica;writing-mode:lr-tb;fill:#4d4d4d;fill-opacity:1;fill-rule:nonzero;stroke:none"
           transform="matrix(1,0,0,-1,197.29,45.75)">
          <tspan
             id="tspan1297"
             y="0"
             x="0">5</tspan>
        </text>
      </g>
      <g
         id="g1301" />
      <g
         id="g1303" />
      <g
         id="g1305" />
      <g
         id="g1307" />
      <g
         id="g1309" />
      <g
         id="g1311">
        <text
           id="text1315"
           style="font-variant:normal;font-weight:normal;font-size:20px;font-family:Helvetica;-inkscape-font-specification:Helvetica;writing-mode:lr-tb;fill:#000000;fill-opacity:1;fill-rule:nonzero;stroke:none"
           transform="matrix(1,0,0,-1,59.68,24.98)">
          <tspan
             id="tspan1313"
             sodipodi:role="line"
             y="0"
             x="0 9.8199997 16.280001 27.4 31.84 37.400002 42.959999 54.080002 58.52 64.080002 69.040001 80.160004 86.82 97.940002 109.06 119.06 130.17999 135.74001">Trait difference (</tspan>
        </text>
        <text
           id="text1319"
           style="font-variant:normal;font-weight:normal;font-size:20px;font-family:Helvetica;-inkscape-font-specification:Helvetica;writing-mode:lr-tb;fill:#000000;fill-opacity:1;fill-rule:nonzero;stroke:none"
           transform="matrix(1,0,0,-1,202.08,24.98)">
          <tspan
             id="tspan1317"
             y="0"
             x="0">Z</tspan>
        </text>
        <text
           id="text1323"
           style="font-variant:normal;font-weight:normal;font-size:14px;font-family:Helvetica;-inkscape-font-specification:Helvetica;writing-mode:lr-tb;fill:#000000;fill-opacity:1;fill-rule:nonzero;stroke:none"
           transform="matrix(1,0,0,-1,214.3,21.32)">
          <tspan
             id="tspan1321"
             y="0"
             x="0">j</tspan>
        </text>
        <text
           id="text1327"
           style="font-variant:normal;font-weight:normal;font-size:20px;font-family:Symbol;-inkscape-font-specification:Symbol;writing-mode:lr-tb;fill:#000000;fill-opacity:1;fill-rule:nonzero;stroke:none"
           transform="matrix(1,0,0,-1,221.11,24.98)">
          <tspan
             id="tspan1325"
             y="0"
             x="0">−</tspan>
        </text>
        <text
           id="text1331"
           style="font-variant:normal;font-weight:normal;font-size:20px;font-family:Helvetica;-inkscape-font-specification:Helvetica;writing-mode:lr-tb;fill:#000000;fill-opacity:1;fill-rule:nonzero;stroke:none"
           transform="matrix(1,0,0,-1,235.79,24.98)">
          <tspan
             id="tspan1329"
             y="0"
             x="0">Z</tspan>
        </text>
        <text
           id="text1335"
           style="font-variant:normal;font-weight:normal;font-size:14px;font-family:Helvetica;-inkscape-font-specification:Helvetica;writing-mode:lr-tb;fill:#000000;fill-opacity:1;fill-rule:nonzero;stroke:none"
           transform="matrix(1,0,0,-1,248.01,21.32)">
          <tspan
             id="tspan1333"
             y="0"
             x="0">i</tspan>
        </text>
        <text
           id="text1339"
           style="font-variant:normal;font-weight:normal;font-size:20px;font-family:Helvetica;-inkscape-font-specification:Helvetica;writing-mode:lr-tb;fill:#000000;fill-opacity:1;fill-rule:nonzero;stroke:none"
           transform="matrix(1,0,0,-1,251.12,24.98)">
          <tspan
             id="tspan1337"
             y="0"
             x="0">)</tspan>
        </text>
      </g>
      <g
         id="g1341" />
      <g
         id="g1343">
        <text
           id="text1347"
           style="font-variant:normal;font-weight:normal;font-size:20px;font-family:Helvetica;-inkscape-font-specification:Helvetica;writing-mode:lr-tb;fill:#000000;fill-opacity:1;fill-rule:nonzero;stroke:none"
           transform="matrix(0,1,1,0,28.91,90.75)">
          <tspan
             id="tspan1345"
             sodipodi:role="line"
             y="0"
             x="0 16.66 27.780001 33.34 44.459999 55.580002 60.02 64.459999 74.459999 80.019997 84.459999 94.459999 100.02 110.02 121.14 125.58 136.7 146.7 152.25999 156.7 167.82001 178.94 184.5 195.62 200.06 205.62 210.58 221.7 228.36 239.48 250.60001 256.16 260.60001 271.72 276.16 281.72">Mutualistic selection differential (</tspan>
        </text>
        <text
           id="text1351"
           style="font-variant:normal;font-weight:normal;font-size:20px;font-family:Helvetica;-inkscape-font-specification:Helvetica;writing-mode:lr-tb;fill:#000000;fill-opacity:1;fill-rule:nonzero;stroke:none"
           transform="matrix(0,1,1,0,28.91,379.13)">
          <tspan
             id="tspan1349"
             y="0"
             x="0">S</tspan>
        </text>
        <text
           id="text1355"
           style="font-variant:normal;font-weight:normal;font-size:14px;font-family:Helvetica;-inkscape-font-specification:Helvetica;writing-mode:lr-tb;fill:#000000;fill-opacity:1;fill-rule:nonzero;stroke:none"
           transform="matrix(0,1,1,0,32.57,392.47)">
          <tspan
             id="tspan1353"
             y="0"
             x="0">m</tspan>
        </text>
        <text
           id="text1359"
           style="font-variant:normal;font-weight:normal;font-size:20px;font-family:Helvetica;-inkscape-font-specification:Helvetica;writing-mode:lr-tb;fill:#000000;fill-opacity:1;fill-rule:nonzero;stroke:none"
           transform="matrix(0,1,1,0,28.91,404.13)">
          <tspan
             id="tspan1357"
             y="0"
             x="0">)</tspan>
        </text>
      </g>
      <g
         id="g1361" />
      <g
         id="g1363" />
      <g
         id="g1365" />
      <g
         id="g1367" />
      <g
         id="g1369" />
      <g
         id="g1371" />
      <g
         id="g1373" />
      <g
         id="g1375" />
      <g
         id="g1377" />
      <g
         id="g1379" />
      <g
         id="g1381" />
      <g
         id="g1383" />
      <g
         id="g1385" />
      <g
         id="g1387" />
      <g
         id="g1389" />
      <g
         id="g1391" />
      <g
         id="g1393" />
      <g
         id="g1395" />
      <g
         id="g1397" />
      <g
         id="g1399" />
      <g
         id="g1401">
        <g
           clip-path="url(#clipPath1407)"
           id="g1403">
          <path
             inkscape:connector-curvature="0"
             id="path1409"
             style="fill:#ffffff;fill-opacity:1;fill-rule:nonzero;stroke:#ffffff;stroke-width:1.07000005;stroke-linecap:round;stroke-linejoin:round;stroke-miterlimit:10;stroke-dasharray:none;stroke-opacity:1"
             d="M 255.12,0 H 510.24 V 453.54 H 255.12 Z" />
        </g>
      </g>
      <g
         id="g1411" />
      <g
         id="g1413">
        <g
           clip-path="url(#clipPath1419)"
           id="g1415">
          <path
             inkscape:connector-curvature="0"
             id="path1421"
             style="fill:#ffffff;fill-opacity:1;fill-rule:nonzero;stroke:none"
             d="m 318.55,62.17 h 177.51 v 377.2 H 318.55 Z" />
          <path
             inkscape:connector-curvature="0"
             id="path1423"
             style="fill:none;stroke:#000000;stroke-width:3.20000005;stroke-linecap:butt;stroke-linejoin:round;stroke-miterlimit:10;stroke-dasharray:none;stroke-opacity:1"
             d="m 326.62,250.88 h 7.51 0.11 7.94 0.47 2.56 2.03 0.75 0.67 0.21 0.4 0.29 0.07 1.08 1.54 1.14 0.19 2.4 1.98 0.06 0.2 0.76 0.83 0.02 1.52 0.73 0.46 0.39 0.1 0.44 0.25 0.09 0.29 0.07 1.49 0.42 0.05 0.15 0.17 0.34 v 0 h 0.12 0.42 0.01 0.16 0.19 1 0.59 0.69 0.04 0.08 0.01 0.26 0.09 0.2 0.02 0.34 0.12 0.35 0.08 0.46 0.08 0.08 0.29 0.06 0.04 0.58 0.01 0.06 0.19 0.25 0.05 0.28 l 0.36,0.19 0.27,0.28 v 0 l 0.61,0.69 0.03,0.04 0.08,0.08 0.03,0.05 0.06,0.07 0.06,0.07 0.01,0.01 0.45,0.58 0.28,0.38 0.06,0.07 0.33,0.49 0.09,0.12 0.54,0.84 0.04,0.07 0.02,0.03 0.18,0.3 0.18,0.3 0.01,0.01 0.04,0.07 0.22,0.39 0.15,0.26 0.22,0.4 0.02,0.05 0.08,0.15 0.05,0.1 0.05,0.08 0.13,0.25 0.08,0.16 0.03,0.05 0.21,0.43 0.11,0.23 0.2,0.4 0.02,0.04 0.06,0.13 0.22,0.48 0.04,0.08 0.05,0.13 0.06,0.12 0.11,0.24 0.04,0.11 0.04,0.08 0.21,0.47 0.01,0.03 0.08,0.18 0.07,0.19 0.15,0.34 0.11,0.26 0.48,1.21 0.18,0.48 0.11,0.3 0.13,0.33 0.07,0.19 0.12,0.33 0.2,0.57 0.05,0.13 0.01,0.03 0.08,0.23 0.36,1.05 0.22,0.65 0.07,0.23 0.13,0.37 0.14,0.46 0.01,0.03 0.11,0.33 0.01,0.05 0.29,0.9 0.11,0.37 0.18,0.59 0.05,0.19 0.03,0.11 0.06,0.19 0.09,0.3 0.03,0.09 0.01,0.05 0.15,0.52 0.15,0.53 0.12,0.42 0.06,0.2 0.08,0.31 0.04,0.14 0.11,0.38 0.06,0.22 0.03,0.12 0.04,0.15 0.07,0.26 0.04,0.13 v 0.03 l 0.04,0.13 0.2,0.74 0.09,0.35 0.38,1.49 0.25,1.01 0.24,0.97 0.32,1.31 0.08,0.35 0.05,0.19 0.15,0.67 0.08,0.32 0.03,0.13 v 0 l 0.01,0.07 0.11,0.45 0.07,0.33 0.11,0.46 0.01,0.07 0.17,0.74 0.04,0.17 0.03,0.15 0.03,0.13 0.18,0.85 0.02,0.06 0.01,0.05 0.16,0.73 0.02,0.12 0.1,0.45 0.02,0.11 0.05,0.2 v 0.03 l 0.01,0.04 0.01,0.03 0.01,0.06 0.33,1.58 0.19,0.9 0.01,0.06 0.03,0.17 0.06,0.26 0.05,0.25 0.29,1.43 0.07,0.35 0.06,0.29 0.02,0.11 0.08,0.41 0.1,0.5 0.04,0.24 0.04,0.2 0.03,0.12 0.02,0.14 0.1,0.51 0.11,0.56 0.04,0.2 0.08,0.4 0.01,0.08 v 0.01 l 0.07,0.37 0.01,0.02 0.01,0.08 0.07,0.33 0.14,0.75 0.12,0.67 0.13,0.7 0.01,0.06 0.16,0.83 0.09,0.53 0.25,1.36 v 0.03 l 0.06,0.33 0.06,0.31 0.01,0.05 v 0.04 l 0.03,0.11 v 0.02 l 0.03,0.18 0.04,0.22 0.03,0.2 0.19,1.03 0.36,2.06 0.05,0.3 0.22,1.31 0.01,0.04 0.08,0.45 0.08,0.5 0.23,1.37 0.02,0.07 0.09,0.59 0.15,0.89 0.02,0.12 0.08,0.48 0.05,0.27 0.01,0.05 0.29,1.8 v 0.03 l 0.13,0.76 0.01,0.08 0.06,0.39 0.06,0.36 0.02,0.08 0.03,0.22 0.06,0.39 0.28,1.73 0.17,1.06 0.07,0.44 0.08,0.5 0.02,0.12 0.05,0.36 0.24,1.49 0.07,0.48 0.07,0.44 0.14,0.94 v 0.01 l 0.08,0.5 0.02,0.09 0.12,0.79 0.06,0.43 0.14,0.91 0.01,0.08 0.07,0.44 0.08,0.49 0.03,0.22 0.01,0.07 0.13,0.87 0.11,0.71 0.02,0.16 0.06,0.36 0.01,0.07 0.05,0.36 0.01,0.03 0.02,0.15 0.01,0.08 0.22,1.48 0.1,0.65 0.08,0.56 0.03,0.19 0.12,0.78 0.05,0.34 0.05,0.38 0.16,1.07 0.06,0.43 0.12,0.8 0.01,0.06 0.05,0.34 0.06,0.43 v 0 l 0.02,0.11 0.43,2.95 0.05,0.36 0.02,0.17 0.13,0.9 0.01,0.01 0.02,0.18 0.03,0.19 0.07,0.46 0.02,0.16 0.01,0.08 0.1,0.71 0.01,0.05 0.12,0.8 0.01,0.09 0.01,0.05 0.18,1.28 v 0.01 l 0.16,1.14 0.09,0.63 0.09,0.58 0.05,0.4 0.02,0.09 0.14,0.97 0.15,1.05 0.09,0.66 0.02,0.15 0.02,0.12 0.01,0.09 0.04,0.3 0.01,0.03 0.02,0.13 0.13,0.94 0.02,0.11 0.15,1.07 0.2,1.39 0.04,0.35 0.18,1.22 v 0.05 l 0.01,0.01 0.07,0.52 0.03,0.22 0.06,0.42 0.02,0.1 v 0.02 l 0.01,0.07 0.05,0.33 0.05,0.37 0.08,0.56 0.03,0.26 0.23,1.61 0.04,0.23 0.08,0.6 0.03,0.24 0.1,0.65 0.01,0.07 0.03,0.25 0.23,1.62 0.21,1.45 0.1,0.74 0.04,0.23 0.07,0.51 0.01,0.06 0.06,0.43 0.02,0.12 0.04,0.34 0.03,0.16 v 0 0.01 l 0.01,0.1 0.23,1.61 0.4,2.78 0.03,0.17 0.02,0.17 0.1,0.72 0.35,2.4 0.06,0.4 0.03,0.19 0.17,1.23 0.12,0.8 0.02,0.09 0.01,0.13 0.07,0.45 0.11,0.72 v 0.04 l 0.06,0.38 0.02,0.16 0.04,0.25 0.02,0.14 0.03,0.24 0.04,0.27 0.14,0.93 0.03,0.18 0.01,0.12 0.02,0.12 v 0.01 l 0.02,0.09 0.02,0.13 0.13,0.92 0.01,0.07 0.05,0.29 0.08,0.54 v 0.01 l 0.14,0.93 0.03,0.21 0.1,0.65 v 0.02 l 0.17,1.11 0.03,0.21 0.09,0.58 0.12,0.83 v 0.01 l 0.07,0.47 0.01,0.01 0.04,0.27 0.06,0.41 0.05,0.33 0.04,0.23 0.02,0.17 0.05,0.28 0.02,0.13 0.06,0.41 0.24,1.55 0.01,0.09 0.05,0.31 0.04,0.26 0.03,0.19 0.04,0.23 0.01,0.05 0.01,0.06 0.07,0.5 0.07,0.39 v 0.05 l 0.21,1.28 0.03,0.2 0.04,0.26 0.03,0.22 0.05,0.29 0.01,0.06 0.18,1.12 0.18,1.09 0.06,0.37 0.13,0.78 0.04,0.27 0.1,0.62 0.11,0.63 0.03,0.2 0.04,0.26 0.05,0.25 0.01,0.06 0.15,0.89 0.21,1.27 0.01,0.05 0.04,0.2 0.01,0.07 0.17,1 0.1,0.57 0.07,0.39 0.05,0.28 0.1,0.56 0.02,0.15 0.01,0.05 0.02,0.09 v 0.04 l 0.12,0.67 0.03,0.14 0.04,0.21 0.09,0.51 0.03,0.2 0.16,0.86 0.09,0.46 0.06,0.35 0.04,0.22 0.02,0.08 0.07,0.38 0.16,0.84 0.14,0.73 0.19,0.99 0.15,0.77 v 0.01 l 0.1,0.5 0.07,0.37 0.17,0.87 0.06,0.28 0.01,0.03 0.01,0.05 0.01,0.04 0.16,-342.9 v 0.01 l 0.03,0.17 0.02,0.08 0.04,0.2 0.25,1.24 0.03,0.17 0.05,0.22 0.07,0.4 0.05,0.23 0.01,0.04 0.22,1.12 0.03,0.18 0.04,0.22 0.02,0.08 0.06,0.35 0.02,0.07 0.02,0.13 0.34,1.8 0.07,0.38 v 0.02 l 0.15,0.83 0.09,0.49 0.05,0.25 0.03,0.17 0.01,0.08 0.03,0.14 0.11,0.61 0.08,0.5 0.13,0.69 0.06,0.39 0.09,0.5 0.1,0.6 0.21,1.2 0.02,0.11 0.07,0.42 0.03,0.18 0.03,0.17 0.19,1.12 0.03,0.16 0.08,0.51 0.2,1.19 0.04,0.25 0.22,1.34 0.06,0.4 0.1,0.57 0.16,1.03 0.05,0.27 0.19,1.19 0.05,0.31 0.02,0.17 0.05,0.32 0.05,0.3 0.03,0.17 0.15,0.95 0.05,0.33 0.03,0.2 0.04,0.29 0.01,0.03 0.04,0.24 0.09,0.59 0.12,0.78 v 0 l 0.07,0.48 0.02,0.15 0.08,0.47 0.01,0.08 0.05,0.33 0.03,0.19 v 0.04 l 0.06,0.36 0.01,0.07 0.04,0.28 0.14,0.91 0.05,0.32 0.23,1.51 0.04,0.29 0.03,0.19 0.01,0.08 0.03,0.17 0.02,0.13 0.06,0.44 0.02,0.12 0.02,0.15 0.02,0.1 0.11,0.74 0.02,0.11 0.07,0.53 0.04,0.27 0.07,0.44 v 0.02 l 0.03,0.17 0.04,0.27 0.01,0.07 0.1,0.7 0.03,0.18 0.11,0.77 0.04,0.3 0.11,0.7 0.01,0.09 0.09,0.64 0.03,0.17 0.05,0.36 0.06,0.39 0.06,0.43 0.07,0.48 0.05,0.34 0.07,0.46 v 0.01 l 0.06,0.44 0.07,0.45 0.05,0.36 0.02,0.15 0.1,0.72 0.05,0.3 0.05,0.35 0.02,0.12 v 0.02 0.04 l 0.24,1.63 v 0.02 l 0.07,0.5 0.06,0.4 0.03,0.23 0.07,0.45 0.01,0.05 0.04,0.31 0.02,0.16 0.15,1.05 0.03,0.17 0.1,0.69 0.05,0.35 0.06,0.41 0.04,0.35 0.08,0.56 0.02,0.1 0.02,0.17 0.01,0.02 0.01,0.11 0.03,0.18 0.02,0.16 0.02,0.13 0.03,0.21 0.17,1.2 0.08,0.56 0.08,0.56 v 0.02 l 0.11,0.75 0.1,0.72 0.07,0.49 0.09,0.61 0.02,0.15 0.06,0.45 0.07,0.49 0.15,1.06 0.31,2.15 0.05,0.4 0.02,0.09 0.1,0.77 0.14,0.99 0.04,0.21 0.06,0.44 v 0.05 l 0.02,0.12 0.11,0.77 0.02,0.14 0.06,0.4 0.02,0.17 0.02,0.1 0.06,0.42 0.07,0.53 0.24,1.64 0.04,0.31 0.07,0.48 0.22,1.59 0.02,0.14 0.29,2.02 0.05,0.34 0.03,0.18 0.01,0.1 0.02,0.09 0.02,0.18 0.02,0.16 0.11,0.69 0.03,0.24 0.19,1.34 0.04,0.25 0.08,0.6 0.02,0.07 0.05,0.4 0.03,0.17 0.02,0.17 0.02,0.14 0.04,0.23 0.01,0.11 0.03,0.22 0.13,0.83 0.04,0.3 0.01,0.1 0.01,0.02 0.01,0.06 0.02,0.18 0.12,0.82 0.01,0.07 0.02,0.12 v 0.01 l 0.02,0.14 0.03,0.21 0.02,0.16 0.24,1.6 0.05,0.32 0.11,0.77 0.01,0.09 0.07,0.42 0.08,0.59 0.13,0.89 0.01,0.07 0.13,0.84 v 0.02 l 0.28,1.85 0.03,0.18 0.16,1.08 0.02,0.15 0.02,0.13 0.06,0.41 0.2,1.31 0.39,2.55 0.19,1.2 0.07,0.47 0.14,0.93 0.11,0.69 0.09,0.56 0.03,0.21 0.08,0.5 0.12,0.74 0.02,0.15 0.02,0.12 0.02,0.15 0.01,0.02 0.11,0.7 0.13,0.81 0.09,0.59 0.42,2.57 0.1,0.64 0.1,0.62 0.04,0.24 0.1,0.57 0.08,0.5 0.01,0.07 0.18,1.07 0.03,0.21 0.19,1.09 0.05,0.29 0.07,0.44 0.05,0.27 v 0.01 l 0.1,0.61 0.02,0.09 0.1,0.59 v 0.02 l 0.01,0.06 0.07,0.38 0.07,0.4 0.05,0.34 0.03,0.15 0.04,0.21 0.12,0.7 0.03,0.16 0.01,0.06 0.09,0.51 0.02,0.12 0.1,0.58 0.02,0.13 0.1,0.55 0.07,0.37 0.02,0.14 v 0.01 l 0.04,0.22 0.01,0.05 v 0.01 l 0.19,1.04 v 0 l 0.04,0.21 0.04,0.22 0.32,1.73 0.09,0.53 0.11,0.57 0.14,0.72 0.09,0.49 0.07,0.38 0.11,0.56 0.01,0.08 0.1,0.52 0.07,0.34 0.01,0.06 0.02,0.11 0.04,0.23 0.02,0.07 0.04,0.21 0.06,0.33 0.01,0.02 0.03,0.14 0.16,0.85 0.07,0.36 0.02,0.08 0.03,0.15 0.02,0.13 0.23,1.11 0.41,2.03 0.02,0.09 0.04,0.18 0.01,0.03 0.04,0.21 0.02,0.09 v 0.02 l 0.16,0.72 0.04,0.21 0.1,0.49 0.01,0.03 0.05,0.23 0.08,0.39 0.07,0.3 0.07,0.34 0.05,0.21 0.25,1.15 0.18,0.81 0.03,0.14 0.1,0.42 0.2,0.88 0.11,0.48 0.08,0.33 0.12,0.5 0.01,0.05 0.05,0.21 0.05,0.22 0.06,0.25 0.04,0.16 0.01,0.04 0.11,0.48 0.14,0.56 0.01,0.06 0.07,0.25 0.13,0.56 0.05,0.17 0.14,0.59 0.22,0.85 0.21,0.81 0.07,0.25 0.02,0.1 0.08,0.31 0.08,0.29 0.02,0.07 0.01,0.05 0.1,0.35 0.04,0.14 0.16,0.61 0.03,0.1 0.18,0.66 0.02,0.06 0.12,0.43 0.06,0.21 0.28,0.97 v 0.01 l 0.18,0.59 0.07,0.26 0.01,0.01 0.03,0.12 0.15,0.48 0.24,0.78 0.27,0.85 v 0.03 l 0.09,0.27 0.06,0.17 0.02,0.07 0.1,0.3 0.42,1.27 0.12,0.35 0.07,0.2 0.04,0.1 0.28,0.81 0.02,0.05 0.17,0.46 0.08,0.23 0.22,0.57 0.03,0.1 0.12,0.31 0.06,0.14 0.01,0.02 0.03,0.1 0.11,0.26 0.01,0.03 0.08,0.22 0.09,0.21 0.26,0.65 0.06,0.13 0.21,0.5 0.17,0.39 0.27,0.62 0.11,0.24 0.29,0.61 0.29,0.61 0.26,0.52 0.23,0.45 0.1,0.2 v 0 l 0.04,0.06 0.65,1.18 0.02,0.03 0.11,0.2 0.47,0.76 0.1,0.16 0.25,0.38 v 0 l 0.02,0.03 0.52,0.76 0.21,0.29 0.2,0.25 0.35,0.45 0.12,0.15 0.18,0.21 0.11,0.13 0.09,0.1 V 250 l 0.06,0.07 0.3,0.32 0.1,0.1 0.1,0.11 0.09,0.09 1.21,0.19 h 0.2 0.07 0.07 0.05 0.41 0.36 0.09 0.37 0.12 0.06 0.06 0.11 0.01 0.05 0.19 0.06 0.06 0.08 0.18 0.23 0.17 0.36 0.27 v 0 h 0.33 0.13 0.05 0.1 0.69 0.16 0.26 0.28 0.32 0.9 0.08 0.14 0.14 0.32 0.35 0.45 0.24 0.12 0.06 0.47 0.28 0.41 0.47 0.28 0.39 0.08 0.52 1.08 0.67 0.57 0.3 2.96 0.3 0.57 0.06 0.36 0.36 0.44 0.12 1.73 0.28 1.27 0.38 0.1 1.69 2.41 1.61 1.3 1.83 0.72 2.87 6.44" />
          <path
             inkscape:connector-curvature="0"
             id="path1425"
             style="fill:none;stroke:#000000;stroke-width:1.07000005;stroke-linecap:butt;stroke-linejoin:round;stroke-miterlimit:10;stroke-dasharray:4.27, 4.27;stroke-dashoffset:0;stroke-opacity:1"
             d="m 409.53,62.17 v 377.2" />
          <path
             inkscape:connector-curvature="0"
             id="path1427"
             style="fill:none;stroke:#000000;stroke-width:1.07000005;stroke-linecap:butt;stroke-linejoin:round;stroke-miterlimit:10;stroke-dasharray:4.27, 4.27;stroke-dashoffset:0;stroke-opacity:1"
             d="M 318.55,250.88 H 496.06" />
          <path
             inkscape:connector-curvature="0"
             id="path1429"
             style="fill:none;stroke:#333333;stroke-width:3.20000005;stroke-linecap:round;stroke-linejoin:round;stroke-miterlimit:10;stroke-dasharray:none;stroke-opacity:1"
             d="m 318.55,62.17 h 177.51 v 377.2 H 318.55 Z" />
        </g>
      </g>
      <g
         id="g1431" />
      <g
         id="g1433" />
      <g
         id="g1435" />
      <g
         id="g1437" />
      <g
         id="g1439" />
      <g
         id="g1441" />
      <g
         id="g1443" />
      <g
         id="g1445" />
      <g
         id="g1447" />
      <g
         id="g1449" />
      <g
         id="g1451" />
      <g
         id="g1453" />
      <g
         id="g1455" />
      <g
         id="g1457" />
      <g
         id="g1459" />
      <g
         id="g1461">
        <text
           id="text1465"
           style="font-variant:normal;font-weight:normal;font-size:16px;font-family:Helvetica;-inkscape-font-specification:Helvetica;writing-mode:lr-tb;fill:#4d4d4d;fill-opacity:1;fill-rule:nonzero;stroke:none"
           transform="matrix(1,0,0,-1,295.38,73.3)">
          <tspan
             id="tspan1463"
             sodipodi:role="line"
             y="0"
             x="0 9.3439999">−4</tspan>
        </text>
        <text
           id="text1469"
           style="font-variant:normal;font-weight:normal;font-size:16px;font-family:Helvetica;-inkscape-font-specification:Helvetica;writing-mode:lr-tb;fill:#4d4d4d;fill-opacity:1;fill-rule:nonzero;stroke:none"
           transform="matrix(1,0,0,-1,295.38,159.22)">
          <tspan
             id="tspan1467"
             sodipodi:role="line"
             y="0"
             x="0 9.3439999">−2</tspan>
        </text>
        <text
           id="text1473"
           style="font-variant:normal;font-weight:normal;font-size:16px;font-family:Helvetica;-inkscape-font-specification:Helvetica;writing-mode:lr-tb;fill:#4d4d4d;fill-opacity:1;fill-rule:nonzero;stroke:none"
           transform="matrix(1,0,0,-1,304.72,245.14)">
          <tspan
             id="tspan1471"
             y="0"
             x="0">0</tspan>
        </text>
        <text
           id="text1477"
           style="font-variant:normal;font-weight:normal;font-size:16px;font-family:Helvetica;-inkscape-font-specification:Helvetica;writing-mode:lr-tb;fill:#4d4d4d;fill-opacity:1;fill-rule:nonzero;stroke:none"
           transform="matrix(1,0,0,-1,304.72,331.06)">
          <tspan
             id="tspan1475"
             y="0"
             x="0">2</tspan>
        </text>
        <text
           id="text1481"
           style="font-variant:normal;font-weight:normal;font-size:16px;font-family:Helvetica;-inkscape-font-specification:Helvetica;writing-mode:lr-tb;fill:#4d4d4d;fill-opacity:1;fill-rule:nonzero;stroke:none"
           transform="matrix(1,0,0,-1,304.72,416.97)">
          <tspan
             id="tspan1479"
             y="0"
             x="0">4</tspan>
        </text>
      </g>
      <g
         id="g1483" />
      <g
         id="g1485">
        <path
           inkscape:connector-curvature="0"
           id="path1487"
           style="fill:none;stroke:#333333;stroke-width:1.07000005;stroke-linecap:butt;stroke-linejoin:round;stroke-miterlimit:10;stroke-dasharray:none;stroke-opacity:1"
           d="m 315.81,79.04 h 2.74" />
        <path
           inkscape:connector-curvature="0"
           id="path1489"
           style="fill:none;stroke:#333333;stroke-width:1.07000005;stroke-linecap:butt;stroke-linejoin:round;stroke-miterlimit:10;stroke-dasharray:none;stroke-opacity:1"
           d="m 315.81,164.96 h 2.74" />
        <path
           inkscape:connector-curvature="0"
           id="path1491"
           style="fill:none;stroke:#333333;stroke-width:1.07000005;stroke-linecap:butt;stroke-linejoin:round;stroke-miterlimit:10;stroke-dasharray:none;stroke-opacity:1"
           d="m 315.81,250.88 h 2.74" />
        <path
           inkscape:connector-curvature="0"
           id="path1493"
           style="fill:none;stroke:#333333;stroke-width:1.07000005;stroke-linecap:butt;stroke-linejoin:round;stroke-miterlimit:10;stroke-dasharray:none;stroke-opacity:1"
           d="m 315.81,336.8 h 2.74" />
        <path
           inkscape:connector-curvature="0"
           id="path1495"
           style="fill:none;stroke:#333333;stroke-width:1.07000005;stroke-linecap:butt;stroke-linejoin:round;stroke-miterlimit:10;stroke-dasharray:none;stroke-opacity:1"
           d="m 315.81,422.72 h 2.74" />
      </g>
      <g
         id="g1497" />
      <g
         id="g1499" />
      <g
         id="g1501" />
      <g
         id="g1503" />
      <g
         id="g1505" />
      <g
         id="g1507" />
      <g
         id="g1509" />
      <g
         id="g1511" />
      <g
         id="g1513" />
      <g
         id="g1515">
        <path
           inkscape:connector-curvature="0"
           id="path1517"
           style="fill:none;stroke:#333333;stroke-width:1.07000005;stroke-linecap:butt;stroke-linejoin:round;stroke-miterlimit:10;stroke-dasharray:none;stroke-opacity:1"
           d="m 321.1,59.43 v 2.74" />
        <path
           inkscape:connector-curvature="0"
           id="path1519"
           style="fill:none;stroke:#333333;stroke-width:1.07000005;stroke-linecap:butt;stroke-linejoin:round;stroke-miterlimit:10;stroke-dasharray:none;stroke-opacity:1"
           d="m 365.32,59.43 v 2.74" />
        <path
           inkscape:connector-curvature="0"
           id="path1521"
           style="fill:none;stroke:#333333;stroke-width:1.07000005;stroke-linecap:butt;stroke-linejoin:round;stroke-miterlimit:10;stroke-dasharray:none;stroke-opacity:1"
           d="m 409.53,59.43 v 2.74" />
        <path
           inkscape:connector-curvature="0"
           id="path1523"
           style="fill:none;stroke:#333333;stroke-width:1.07000005;stroke-linecap:butt;stroke-linejoin:round;stroke-miterlimit:10;stroke-dasharray:none;stroke-opacity:1"
           d="m 453.74,59.43 v 2.74" />
      </g>
      <g
         id="g1525" />
      <g
         id="g1527">
        <text
           id="text1531"
           style="font-variant:normal;font-weight:normal;font-size:16px;font-family:Helvetica;-inkscape-font-specification:Helvetica;writing-mode:lr-tb;fill:#4d4d4d;fill-opacity:1;fill-rule:nonzero;stroke:none"
           transform="matrix(1,0,0,-1,307.54,45.75)">
          <tspan
             id="tspan1529"
             sodipodi:role="line"
             y="0"
             x="0 9.3439999 18.24">−10</tspan>
        </text>
        <text
           id="text1535"
           style="font-variant:normal;font-weight:normal;font-size:16px;font-family:Helvetica;-inkscape-font-specification:Helvetica;writing-mode:lr-tb;fill:#4d4d4d;fill-opacity:1;fill-rule:nonzero;stroke:none"
           transform="matrix(1,0,0,-1,356.2,45.75)">
          <tspan
             id="tspan1533"
             sodipodi:role="line"
             y="0"
             x="0 9.3439999">−5</tspan>
        </text>
        <text
           id="text1539"
           style="font-variant:normal;font-weight:normal;font-size:16px;font-family:Helvetica;-inkscape-font-specification:Helvetica;writing-mode:lr-tb;fill:#4d4d4d;fill-opacity:1;fill-rule:nonzero;stroke:none"
           transform="matrix(1,0,0,-1,405.08,45.75)">
          <tspan
             id="tspan1537"
             y="0"
             x="0">0</tspan>
        </text>
        <text
           id="text1543"
           style="font-variant:normal;font-weight:normal;font-size:16px;font-family:Helvetica;-inkscape-font-specification:Helvetica;writing-mode:lr-tb;fill:#4d4d4d;fill-opacity:1;fill-rule:nonzero;stroke:none"
           transform="matrix(1,0,0,-1,449.29,45.75)">
          <tspan
             id="tspan1541"
             y="0"
             x="0">5</tspan>
        </text>
      </g>
      <g
         id="g1545" />
      <g
         id="g1547" />
      <g
         id="g1549" />
      <g
         id="g1551" />
      <g
         id="g1553" />
      <g
         id="g1555">
        <text
           id="text1559"
           style="font-variant:normal;font-weight:normal;font-size:20px;font-family:Helvetica;-inkscape-font-specification:Helvetica;writing-mode:lr-tb;fill:#000000;fill-opacity:1;fill-rule:nonzero;stroke:none"
           transform="matrix(1,0,0,-1,308.26,24.98)">
          <tspan
             id="tspan1557"
             sodipodi:role="line"
             y="0"
             x="0 9.8199997 16.280001 27.4 31.84 37.400002 42.959999 54.080002 58.52 64.080002 69.040001 80.160004 86.82 97.940002 109.06 119.06 130.17999 135.74001">Trait difference (</tspan>
        </text>
        <text
           id="text1563"
           style="font-variant:normal;font-weight:normal;font-size:20px;font-family:Helvetica;-inkscape-font-specification:Helvetica;writing-mode:lr-tb;fill:#000000;fill-opacity:1;fill-rule:nonzero;stroke:none"
           transform="matrix(1,0,0,-1,450.66,24.98)">
          <tspan
             id="tspan1561"
             y="0"
             x="0">Z</tspan>
        </text>
        <text
           id="text1567"
           style="font-variant:normal;font-weight:normal;font-size:14px;font-family:Helvetica;-inkscape-font-specification:Helvetica;writing-mode:lr-tb;fill:#000000;fill-opacity:1;fill-rule:nonzero;stroke:none"
           transform="matrix(1,0,0,-1,462.88,21.32)">
          <tspan
             id="tspan1565"
             y="0"
             x="0">j</tspan>
        </text>
        <text
           id="text1571"
           style="font-variant:normal;font-weight:normal;font-size:20px;font-family:Symbol;-inkscape-font-specification:Symbol;writing-mode:lr-tb;fill:#000000;fill-opacity:1;fill-rule:nonzero;stroke:none"
           transform="matrix(1,0,0,-1,469.69,24.98)">
          <tspan
             id="tspan1569"
             y="0"
             x="0">−</tspan>
        </text>
        <text
           id="text1575"
           style="font-variant:normal;font-weight:normal;font-size:20px;font-family:Helvetica;-inkscape-font-specification:Helvetica;writing-mode:lr-tb;fill:#000000;fill-opacity:1;fill-rule:nonzero;stroke:none"
           transform="matrix(1,0,0,-1,484.37,24.98)">
          <tspan
             id="tspan1573"
             y="0"
             x="0">Z</tspan>
        </text>
        <text
           id="text1579"
           style="font-variant:normal;font-weight:normal;font-size:14px;font-family:Helvetica;-inkscape-font-specification:Helvetica;writing-mode:lr-tb;fill:#000000;fill-opacity:1;fill-rule:nonzero;stroke:none"
           transform="matrix(1,0,0,-1,496.59,21.32)">
          <tspan
             id="tspan1577"
             y="0"
             x="0">i</tspan>
        </text>
        <text
           id="text1583"
           style="font-variant:normal;font-weight:normal;font-size:20px;font-family:Helvetica;-inkscape-font-specification:Helvetica;writing-mode:lr-tb;fill:#000000;fill-opacity:1;fill-rule:nonzero;stroke:none"
           transform="matrix(1,0,0,-1,499.7,24.98)">
          <tspan
             id="tspan1581"
             y="0"
             x="0">)</tspan>
        </text>
      </g>
      <g
         id="g1585" />
      <g
         id="g1587">
        <text
           id="text1591"
           style="font-variant:normal;font-weight:normal;font-size:20px;font-family:Helvetica;-inkscape-font-specification:Helvetica;writing-mode:lr-tb;fill:#000000;fill-opacity:1;fill-rule:nonzero;stroke:none"
           transform="matrix(0,1,1,0,284.03,85.45)">
          <tspan
             id="tspan1589"
             sodipodi:role="line"
             y="0"
             x="0 13.34 24.459999 30.02 41.139999 52.259998 63.380001 74.5 78.940002 88.940002 94.5 98.940002 108.94 114.5 124.5 135.62 140.06 151.17999 161.17999 166.74001 171.17999 182.3 193.42 198.98 210.10001 214.53999 220.10001 225.06 236.17999 242.84 253.96001 265.07999 270.64001 275.07999 286.20001 290.64001 296.20001">Antagonistic selection differential (</tspan>
        </text>
        <text
           id="text1595"
           style="font-variant:normal;font-weight:normal;font-size:20px;font-family:Helvetica;-inkscape-font-specification:Helvetica;writing-mode:lr-tb;fill:#000000;fill-opacity:1;fill-rule:nonzero;stroke:none"
           transform="matrix(0,1,1,0,284.03,388.31)">
          <tspan
             id="tspan1593"
             y="0"
             x="0">S</tspan>
        </text>
        <text
           id="text1599"
           style="font-variant:normal;font-weight:normal;font-size:14px;font-family:Helvetica;-inkscape-font-specification:Helvetica;writing-mode:lr-tb;fill:#000000;fill-opacity:1;fill-rule:nonzero;stroke:none"
           transform="matrix(0,1,1,0,287.69,401.65)">
          <tspan
             id="tspan1597"
             y="0"
             x="0">a</tspan>
        </text>
        <text
           id="text1603"
           style="font-variant:normal;font-weight:normal;font-size:20px;font-family:Helvetica;-inkscape-font-specification:Helvetica;writing-mode:lr-tb;fill:#000000;fill-opacity:1;fill-rule:nonzero;stroke:none"
           transform="matrix(0,1,1,0,284.03,409.43)">
          <tspan
             id="tspan1601"
             y="0"
             x="0">)</tspan>
        </text>
      </g>
      <g
         id="g1605" />
      <g
         id="g1607" />
      <g
         id="g1609" />
      <g
         id="g1611" />
      <g
         id="g1613" />
      <g
         id="g1615" />
      <g
         id="g1617" />
      <g
         id="g1619" />
      <g
         id="g1621" />
      <g
         id="g1623" />
      <g
         id="g1625" />
      <g
         id="g1627" />
      <g
         id="g1629" />
      <g
         id="g1631" />
      <g
         id="g1633" />
      <g
         id="g1635" />
      <g
         id="g1637" />
      <g
         id="g1639" />
      <g
         id="g1641" />
      <g
         id="g1643" />
      <g
         id="g1645">
        <g
           clip-path="url(#clipPath1651)"
           id="g1647">
          <path
             inkscape:connector-curvature="0"
             id="path1653"
             style="fill:#ffffff;fill-opacity:1;fill-rule:nonzero;stroke:#ffffff;stroke-width:1.07000005;stroke-linecap:round;stroke-linejoin:round;stroke-miterlimit:10;stroke-dasharray:none;stroke-opacity:1"
             d="M 510.24,0 H 765.36 V 453.54 H 510.24 Z" />
        </g>
      </g>
      <g
         id="g1655" />
      <g
         id="g1657">
        <g
           clip-path="url(#clipPath1663)"
           id="g1659">
          <path
             inkscape:connector-curvature="0"
             id="path1665"
             style="fill:#ffffff;fill-opacity:1;fill-rule:nonzero;stroke:none"
             d="M 573.41,59.71 H 751.18 V 439.37 H 573.41 Z" />
          <path
             inkscape:connector-curvature="0"
             id="path1667"
             style="fill:none;stroke:#000000;stroke-width:3.20000005;stroke-linecap:butt;stroke-linejoin:round;stroke-miterlimit:10;stroke-dasharray:none;stroke-opacity:1"
             d="m 581.49,422.11 0.26,-0.56 8.82,-18.84 3.1,-6.61 2.01,-4.3 0.91,-1.93 1.45,-3.1 0.28,-0.59 0.21,-0.47 0.6,-1.28 0.9,-1.91 1.35,-2.89 0.04,-0.08 0.46,-0.99 0.67,-1.42 0.82,-1.75 0.14,-0.31 2.07,-4.42 0.66,-1.41 0.19,-0.41 0.1,-0.2 0.83,-1.77 0.16,-0.36 0.16,-0.34 0.06,-0.12 0.54,-1.16 0.06,-0.12 0.47,-1 1.25,-2.67 0.24,-0.51 0.52,-1.12 1.25,-2.66 v -0.01 l 0.32,-0.68 0.4,-0.86 0.15,-0.32 0.13,-0.27 0.01,-0.01 0.54,-1.16 0.14,-0.3 0.06,-0.13 0.09,-0.2 0.55,-1.16 0.21,-0.45 v 0 l 0.21,-0.47 0.51,-1.07 0.26,-0.57 0.01,-0.01 0.14,-0.29 0.05,-0.12 0.06,-0.13 0.1,-0.21 0.14,-0.3 0.04,-0.08 0.62,-1.33 0.25,-0.53 0.22,-0.47 0.02,-0.05 0.19,-0.4 0.28,-0.59 0.43,-0.94 0.22,-0.47 0.52,-1.1 0.09,-0.19 0.1,-0.22 0.13,-0.26 0.02,-0.05 0.27,-0.59 0.02,-0.03 0.07,-0.16 0.11,-0.22 0.08,-0.17 0.1,-0.22 0.09,-0.2 0.09,-0.18 0.26,-0.57 0.01,-0.01 0.12,-0.25 0.26,-0.57 0.4,-0.85 0.03,-0.06 0.07,-0.14 0.19,-0.42 0.02,-0.05 0.13,-0.26 0.03,-0.06 0.11,-0.25 0.06,-0.12 0.15,-0.34 0.28,-0.58 0.08,-0.18 0.16,-0.33 0.01,-0.04 0.04,-0.07 0.11,-0.23 0.06,-0.15 0.29,-0.6 0.85,-1.81 v -0.02 l 0.07,-0.13 0.06,-0.14 0.05,-0.12 0.14,-0.28 0.05,-0.12 0.08,-0.16 0.06,-0.13 0.19,-0.41 0.04,-0.09 0.39,-0.82 0.08,-0.17 0.21,-0.46 0.09,-0.18 0.14,-0.31 0.25,-0.54 0.11,-0.23 0.06,-0.13 0.03,-0.06 0.05,-0.1 0.03,-0.06 0.04,-0.1 0.1,-0.21 0.04,-0.08 0.1,-0.21 0.05,-0.11 0.12,-0.26 0.01,-0.02 0.02,-0.03 0.08,-0.19 0.01,-0.01 0.11,-0.25 0.08,-0.16 0.19,-0.41 0.47,-0.99 0.24,-0.52 0.05,-0.12 0.1,-0.2 0.01,-0.02 0.06,-0.13 0.06,-0.14 0.64,-1.37 0.07,-0.13 0.12,-0.26 0.34,-0.73 0.19,-0.41 0.26,-0.54 0.01,-0.03 0.23,-0.5 0.02,-0.03 0.01,-0.02 0.08,-0.17 0.18,-0.39 0.03,-0.06 0.13,-0.29 0.08,-0.17 0.07,-0.14 0.34,-0.74 0.04,-0.08 0.11,-0.24 0.07,-0.13 0.04,-0.09 0.21,-0.45 0.27,-0.58 0.04,-0.08 0.36,-0.78 0.02,-0.04 0.31,-0.67 0.22,-0.47 0.12,-0.24 0.01,-0.02 0.33,-0.71 0.27,-0.57 0.04,-0.1 0.14,-0.28 0.02,-0.05 0.06,-0.13 0.06,-0.13 0.03,-0.07 0.01,-0.02 0.23,-0.5 0.01,-0.02 0.13,-0.27 v -0.01 l 0.21,-0.43 0.15,-0.34 0.03,-0.04 0.07,-0.16 0.04,-0.08 0.02,-0.05 0.03,-0.06 0.05,-0.1 0.24,-0.52 0.23,-0.49 0.07,-0.15 0.03,-0.06 0.23,-0.49 v -0.02 l 0.04,-0.07 0.17,-0.37 v 0 l 0.18,-0.38 0.14,-0.31 0.05,-0.09 0.16,-0.35 0.41,-0.87 0.02,-0.05 0.04,-0.09 0.18,-0.37 0.02,-0.05 0.26,-0.55 0.02,-0.04 0.06,-0.13 0.01,-0.02 0.19,-0.42 0.13,-0.27 0.05,-0.11 0.03,-0.05 0.08,-0.17 0.02,-0.06 0.04,-0.08 0.06,-0.12 0.03,-0.07 0.09,-0.19 0.02,-0.04 0.04,-0.08 0.02,-0.05 0.06,-0.13 0.16,-0.34 0.01,-0.02 0.09,-0.19 0.1,-0.23 0.04,-0.09 0.07,-0.14 0.05,-0.1 0.08,-0.18 0.02,-0.04 0.07,-0.15 0.02,-0.04 0.07,-0.14 0.04,-0.09 v 0 -0.01 l 0.08,-0.16 0.06,-0.13 0.05,-0.12 0.03,-0.05 0.02,-0.04 0.01,-0.04 0.01,-0.02 0.06,-0.12 0.01,-0.02 0.01,-0.02 0.05,-0.11 0.02,-0.05 0.06,-0.11 0.49,-1.06 0.14,-0.3 0.07,-0.13 v -0.01 l 0.09,-0.2 0.03,-0.07 0.02,-0.03 0.11,-0.23 v 0 l 0.06,-0.13 0.04,-0.09 0.12,-0.25 0.19,-0.4 0.01,-0.02 0.08,-0.18 v -0.01 l 0.12,-0.26 0.17,-0.36 0.03,-0.06 0.02,-0.03 v -0.01 l 0.07,-0.14 0.08,-0.17 0.13,-0.29 0.03,-0.06 0.03,-0.06 0.1,-0.22 v -0.01 l 0.08,-0.16 0.18,-0.38 0.05,-0.12 0.12,-0.25 0.08,-0.16 0.1,-0.21 v 0 l 0.08,-0.19 0.09,-0.19 0.24,-0.5 0.02,-0.05 0.03,-0.06 v 0 l 0.02,-0.05 0.22,-0.47 0.13,-0.27 0.31,-0.68 0.09,-0.18 0.31,-0.66 0.05,-0.11 0.08,-0.18 0.07,-0.14 0.11,-0.24 0.01,-0.01 v 0 l 0.13,-0.28 0.21,-0.46 0.08,-0.16 0.1,-0.21 0.01,-0.02 0.02,-0.05 0.06,-0.13 0.2,-0.43 0.01,-0.01 0.01,-0.03 0.03,-0.07 0.01,-0.02 0.06,-0.13 0.11,-0.22 0.09,-0.19 0.04,-0.1 0.05,-0.1 0.03,-0.06 0.03,-0.07 0.01,-0.01 0.02,-0.04 0.11,-0.26 0.11,-0.23 0.05,-0.1 0.01,-0.02 0.01,-0.01 0.02,-0.06 0.02,-0.03 0.08,-0.19 0.01,-0.01 0.02,-0.03 0.1,-0.23 0.04,-0.08 0.09,-0.2 0.05,-0.11 0.03,-0.05 0.16,-0.34 0.04,-0.08 0.07,-0.17 0.31,-0.65 0.01,-0.02 0.02,-0.05 0.03,-0.07 0.12,-0.24 0.02,-0.06 0.03,-0.05 0.02,-0.04 v 0 -0.02 l 0.05,-0.1 0.05,-0.09 v -0.02 h 0.01 l 0.04,-0.09 0.05,-0.11 0.13,-0.28 0.04,-0.08 0.1,-0.22 0.01,-0.03 0.03,-0.06 0.12,-0.25 0.04,-0.09 0.01,-0.02 0.01,-0.03 0.03,-0.06 0.09,-0.18 0.04,-0.1 0.1,-0.22 0.02,-0.03 0.08,-0.16 0.14,-0.3 0.04,-0.09 0.01,-0.03 v 0 l 0.04,-0.07 0.06,-0.13 0.02,-0.05 0.03,-0.06 0.04,-0.1 0.01,-0.02 0.02,-0.04 0.01,-0.02 0.04,-0.08 0.03,-0.08 0.09,-0.17 0.25,-0.55 0.02,-0.03 v -0.01 l 0.05,-0.09 0.05,-0.12 0.06,-0.12 v -0.01 l 0.03,-0.05 0.01,-0.03 v -0.01 l 0.36,-0.76 0.01,-0.02 0.16,-0.34 0.02,-0.04 0.02,-0.05 0.01,-0.03 0.02,-0.03 0.01,-0.03 0.05,-0.11 0.05,-0.1 0.02,-0.04 0.15,-0.32 0.04,-0.08 0.08,-0.17 0.15,-0.34 0.08,-0.17 0.05,-0.1 0.1,-0.21 0.1,-0.21 v -0.01 l 0.16,-0.33 0.01,-0.03 0.11,-0.22 0.01,-0.03 0.07,-0.15 0.01,-0.02 0.02,-0.05 0.04,-0.08 0.07,-0.15 0.08,-0.17 v -0.01 l 0.04,-0.07 0.03,-0.08 0.01,-0.01 0.01,-0.03 0.08,-0.17 0.1,-0.21 0.14,-0.3 0.06,-0.12 0.17,-0.37 0.05,-0.11 0.19,-0.4 0.14,-0.31 0.21,-0.43 0.24,-0.53 0.01,-0.02 0.06,-0.11 0.05,-0.12 0.17,-0.37 0.03,-0.06 0.06,-0.13 0.05,-0.09 0.02,-0.06 0.28,-0.59 0.01,-0.02 0.09,-0.2 0.09,-0.19 0.21,-0.44 0.03,-0.08 0.01,-0.01 0.05,-0.11 0.14,-0.3 0.02,-0.05 0.04,-0.08 0.1,-0.21 0.03,-0.06 0.12,-0.26 0.12,-0.26 0.08,-0.17 0.01,-0.02 0.03,-0.06 0.04,-0.08 0.04,-0.1 0.06,-0.12 0.08,-0.17 0.07,-0.15 v 0 l 0.17,-0.37 0.09,-0.19 0.06,-0.13 0.03,-0.06 v -0.01 l 0.01,-0.01 0.01,-0.03 h 0.01 v -0.02 l 0.05,-0.1 0.14,-0.29 0.01,-0.02 0.02,-0.06 0.03,-0.05 0.04,-0.09 0.05,-0.1 0.12,-0.27 0.04,-0.08 0.12,-0.26 0.02,-0.04 0.1,-0.21 0.42,-0.91 0.05,-0.09 0.02,-0.04 0.01,-0.04 0.07,-0.15 0.01,-0.01 0.02,-0.04 0.02,-0.06 0.13,-0.26 0.04,-0.08 0.09,-0.2 0.08,-0.17 0.08,-0.18 0.08,-0.16 0.05,-0.1 v -0.01 l 0.18,-0.39 0.07,-0.14 0.01,-0.04 0.17,-0.34 0.05,-0.12 0.09,-0.18 0.09,-0.2 0.1,-0.2 0.14,-0.31 0.1,-0.23 0.06,-0.11 0.08,-0.17 0.08,-0.18 0.03,-0.07 0.03,-0.04 0.01,-0.03 0.08,-0.17 0.1,-0.22 0.17,-0.36 0.07,-0.14 0.09,-0.2 v -0.01 l 0.14,-0.3 0.15,-0.31 0.05,-0.11 0.05,-0.11 0.04,-0.08 0.06,-0.14 0.06,-0.12 0.05,-0.11 0.09,-0.18 0.02,-0.04 0.21,-0.46 0.05,-0.11 0.15,-0.31 0.03,-0.07 0.1,-0.22 0.07,-0.14 v -0.01 l 0.17,-0.36 0.09,-0.2 0.03,-0.06 0.09,-0.19 0.09,-0.2 0.02,-0.04 0.19,-0.4 0.06,-0.12 0.08,-0.18 0.03,-0.06 0.04,-0.08 0.03,-0.06 v -0.01 l 0.02,-0.04 0.04,-0.08 v -0.02 l 0.07,-0.14 0.18,-0.37 0.06,-0.15 0.04,-0.07 0.02,-0.04 0.01,-0.03 0.11,-0.23 0.09,-0.2 0.13,-0.27 0.05,-0.12 0.03,-0.05 0.1,-0.21 v -0.02 l 0.17,-0.35 0.03,-0.07 0.03,-0.06 0.09,-0.2 0.03,-0.05 0.02,-0.05 0.04,-0.09 0.02,-0.04 0.01,-0.02 0.19,-0.39 0.05,-0.12 0.12,-0.25 0.06,-0.13 0.03,-0.08 0.15,-0.31 0.09,-0.18 0.02,-0.06 0.24,-0.5 0.04,-0.1 0.04,-0.08 0.12,-0.24 0.02,-0.06 0.08,-0.16 0.06,-0.14 0.07,-0.15 v 0 l 0.05,-0.11 0.07,-0.14 0.08,-0.18 0.08,-0.15 0.11,-0.24 0.04,-0.09 0.07,-0.14 0.23,-0.5 0.01,-0.02 0.23,-0.5 0.13,-0.27 0.13,-0.28 0.05,-0.11 0.06,-0.12 v -0.01 l 0.1,-0.2 0.09,-0.19 v -0.02 l 0.13,-0.26 0.01,-0.03 0.02,-0.03 0.03,-0.09 0.03,-0.06 0.04,-0.07 0.13,-0.28 0.12,-0.26 0.02,-0.04 0.1,-0.22 0.12,-0.26 0.03,-0.06 0.03,-0.05 0.05,-0.11 0.03,-0.07 0.12,-0.25 0.06,-0.15 0.07,-0.13 0.04,-0.09 0.19,-0.41 0.07,-0.15 0.2,-0.43 0.03,-0.07 0.05,-0.09 0.04,-0.1 0.07,-0.14 0.22,-0.47 0.03,-0.05 0.1,-0.23 0.04,-0.09 0.07,-0.15 0.08,-0.16 0.05,-0.12 0.22,-0.45 0.08,-0.17 0.01,-0.03 0.01,-0.02 0.05,-0.12 0.03,-0.06 0.12,-0.26 0.04,-0.07 0.01,-0.02 0.02,-0.04 0.01,-0.03 0.05,-0.1 0.04,-0.1 0.02,-0.04 0.14,-0.29 0.02,-0.05 0.07,-0.15 0.01,-0.01 0.01,-0.03 0.16,-0.34 0.06,-0.13 0.05,-0.12 0.16,-0.32 0.06,-0.14 0.02,-0.03 0.06,-0.14 0.1,-0.21 0.07,-0.16 0.07,-0.15 0.15,-0.31 0.05,-0.11 0.01,-0.02 0.12,-0.25 v -0.01 l 0.01,-0.03 0.07,-0.13 0.41,-0.89 0.06,-0.13 0.05,-0.1 0.01,-0.02 0.06,-0.12 v -0.01 l 0.06,-0.13 0.17,-0.36 0.11,-0.23 0.08,-0.17 0.1,-0.22 0.08,-0.16 0.1,-0.22 v -0.01 l 0.11,-0.22 0.03,-0.08 0.1,-0.21 0.06,-0.12 0.19,-0.41 0.02,-0.04 0.01,-0.01 0.09,-0.2 0.12,-0.26 0.01,-0.03 0.01,-0.01 0.03,-0.07 0.11,-0.24 0.02,-0.03 0.01,-0.03 0.05,-0.11 0.08,-0.15 0.03,-0.08 0.1,-0.2 v -0.01 l 0.01,-0.02 0.15,-0.31 0.16,-0.35 0.17,-0.37 0.06,-0.12 0.05,-0.12 0.01,-0.02 0.29,-0.6 0.07,-0.17 0.02,-0.04 0.03,-0.07 0.09,-0.19 0.16,-0.33 0.02,-0.05 0.01,-0.03 0.03,-0.05 0.01,-0.03 0.02,-0.03 0.1,-0.22 0.07,-0.15 v -0.01 l 0.06,-0.11 0.14,-0.3 v 0 l 0.01,-0.02 0.04,-0.1 0.02,-0.04 0.04,-0.07 0.15,-0.34 0.06,-0.12 0.01,-0.02 0.02,-0.05 0.02,-0.03 0.01,-0.03 0.19,-0.41 0.05,-0.11 0.02,-0.03 0.44,-0.94 0.01,-0.02 0.01,-0.04 0.14,-0.29 0.01,-0.02 0.03,-0.06 0.06,-0.13 0.03,-0.07 0.22,-0.45 0.01,-0.03 0.16,-0.34 0.07,-0.15 0.2,-0.43 0.03,-0.06 0.01,-0.03 0.13,-0.28 0.02,-0.04 0.06,-0.12 0.01,-0.03 0.09,-0.2 0.02,-0.02 0.06,-0.14 0.34,-0.72 0.17,-0.37 0.05,-0.11 0.09,-0.18 0.04,-0.1 0.07,-0.14 0.3,-0.64 v -0.01 l 0.01,-0.02 0.05,-0.1 v -0.01 l 0.01,-0.01 0.08,-0.18 0.06,-0.13 0.19,-0.39 0.01,-0.03 0.05,-0.1 0.22,-0.48 0.13,-0.27 0.1,-0.21 v -0.01 l 0.08,-0.16 0.03,-0.07 0.02,-0.05 0.13,-0.28 0.04,-0.08 0.01,-0.03 0.42,-0.89 0.02,-0.03 0.06,-0.14 0.02,-0.04 0.08,-0.16 0.03,-0.07 0.01,-0.03 0.03,-0.07 0.19,-0.39 0.18,-0.39 0.11,-0.23 0.16,-0.35 0.01,-0.03 0.14,-0.3 h 0.01 l 0.05,-0.11 0.12,-0.27 0.16,-0.34 0.02,-0.03 0.01,-0.02 v -0.01 l 0.39,-0.82 0.03,-0.07 0.08,-0.17 0.01,-0.02 0.08,-0.17 0.07,-0.16 0.13,-0.27 0.27,-0.59 0.04,-0.08 0.07,-0.14 0.16,-0.35 0.02,-0.03 0.01,-0.04 0.05,-0.1 0.02,-0.04 0.01,-0.02 0.22,-0.47 0.06,-0.14 0.08,-0.15 0.05,-0.12 0.09,-0.19 0.16,-0.35 0.04,-0.07 0.13,-0.28 0.04,-0.1 0.01,-0.01 0.11,-0.23 0.07,-0.16 0.2,-0.43 0.12,-0.25 0.14,-0.3 0.02,-0.05 0.03,-0.06 0.03,-0.06 0.46,-0.99 0.13,-0.27 v 0 -0.01 l 0.02,-0.02 0.07,-0.17 0.02,-0.03 0.01,-0.02 0.1,-0.21 0.21,-0.46 0.02,-0.04 0.05,-0.11 0.02,-0.04 v 0 l 0.1,-0.22 0.04,-0.07 0.06,-0.13 0.02,-0.05 0.31,-0.67 0.09,-0.17 0.02,-0.05 0.09,-0.19 0.24,-0.52 0.01,-0.03 0.04,-0.08 0.23,-0.5 0.06,-0.13 0.09,-0.18 0.06,-0.13 0.07,-0.15 0.04,-0.09 v 0 l 0.11,-0.23 0.1,-0.22 0.18,-0.37 0.02,-0.04 0.13,-0.28 0.23,-0.5 0.06,-0.13 0.09,-0.19 0.16,-0.33 0.02,-0.05 0.06,-0.13 0.01,-0.02 0.06,-0.12 v 0 l 0.1,-0.22 0.01,-0.02 0.03,-0.08 0.08,-0.15 0.06,-0.13 0.39,-0.83 0.03,-0.08 0.16,-0.34 0.06,-0.13 0.06,-0.13 0.2,-0.43 0.18,-0.38 0.57,-1.21 0.49,-1.04 0.01,-0.04 0.05,-0.09 0.13,-0.29 0.22,-0.45 0.02,-0.06 0.52,-1.1 0.07,-0.15 0.34,-0.73 0.42,-0.91 0.26,-0.55 0.06,-0.12 0.44,-0.95 0.02,-0.04 0.11,-0.24 0.16,-0.33 0.39,-0.84 0.1,-0.21 0.09,-0.18 0.33,-0.72 0.01,-0.02 0.08,-0.17 0.09,-0.18 0.2,-0.44 0.6,-1.27 0.64,-1.37 0.35,-0.75 0.28,-0.61 0.65,-1.38 0.52,-1.12 0.4,-0.84 0.08,-0.18 0.98,-2.08 0.16,-0.35 0.19,-0.41 0.7,-1.49 0.13,-0.28 2.28,-4.87 0.32,-0.68 0.49,-1.06 2.12,-4.51 0.38,-0.82 0.36,-0.76 0.71,-1.51 0.16,-0.34 0.16,-0.35 0.42,-0.89 0.72,-1.55 0.5,-1.07 0.07,-0.15 0.43,-0.91 0.08,-0.18 0.27,-0.57 0.42,-0.89 0.18,-0.39 0.64,-1.38 0.02,-0.04 1.97,-4.2 2.28,-4.88 0.16,-0.33 0.28,-0.61 0.48,-1.01 1.31,-2.8 3.98,-8.5 1.37,-2.93 0.01,-0.03 7.7,-16.44 13.03,-27.82" />
          <path
             inkscape:connector-curvature="0"
             id="path1669"
             style="fill:none;stroke:#000000;stroke-width:1.07000005;stroke-linecap:butt;stroke-linejoin:round;stroke-miterlimit:10;stroke-dasharray:4.27, 4.27;stroke-dashoffset:0;stroke-opacity:1"
             d="M 573.41,263.47 H 751.18" />
          <path
             inkscape:connector-curvature="0"
             id="path1671"
             style="fill:none;stroke:#333333;stroke-width:3.20000005;stroke-linecap:round;stroke-linejoin:round;stroke-miterlimit:10;stroke-dasharray:none;stroke-opacity:1"
             d="M 573.41,59.71 H 751.18 V 439.37 H 573.41 Z" />
        </g>
      </g>
      <g
         id="g1673" />
      <g
         id="g1675" />
      <g
         id="g1677" />
      <g
         id="g1679" />
      <g
         id="g1681" />
      <g
         id="g1683" />
      <g
         id="g1685" />
      <g
         id="g1687" />
      <g
         id="g1689" />
      <g
         id="g1691" />
      <g
         id="g1693" />
      <g
         id="g1695" />
      <g
         id="g1697" />
      <g
         id="g1699" />
      <g
         id="g1701" />
      <g
         id="g1703">
        <text
           id="text1707"
           style="font-variant:normal;font-weight:normal;font-size:16px;font-family:Helvetica;-inkscape-font-specification:Helvetica;writing-mode:lr-tb;fill:#4d4d4d;fill-opacity:1;fill-rule:nonzero;stroke:none"
           transform="matrix(1,0,0,-1,550.24,152.39)">
          <tspan
             id="tspan1705"
             sodipodi:role="line"
             y="0"
             x="0 9.3439999">−4</tspan>
        </text>
        <text
           id="text1711"
           style="font-variant:normal;font-weight:normal;font-size:16px;font-family:Helvetica;-inkscape-font-specification:Helvetica;writing-mode:lr-tb;fill:#4d4d4d;fill-opacity:1;fill-rule:nonzero;stroke:none"
           transform="matrix(1,0,0,-1,559.58,257.73)">
          <tspan
             id="tspan1709"
             y="0"
             x="0">0</tspan>
        </text>
        <text
           id="text1715"
           style="font-variant:normal;font-weight:normal;font-size:16px;font-family:Helvetica;-inkscape-font-specification:Helvetica;writing-mode:lr-tb;fill:#4d4d4d;fill-opacity:1;fill-rule:nonzero;stroke:none"
           transform="matrix(1,0,0,-1,559.58,363.06)">
          <tspan
             id="tspan1713"
             y="0"
             x="0">4</tspan>
        </text>
      </g>
      <g
         id="g1717" />
      <g
         id="g1719">
        <path
           inkscape:connector-curvature="0"
           id="path1721"
           style="fill:none;stroke:#333333;stroke-width:1.07000005;stroke-linecap:butt;stroke-linejoin:round;stroke-miterlimit:10;stroke-dasharray:none;stroke-opacity:1"
           d="m 570.67,158.13 h 2.74" />
        <path
           inkscape:connector-curvature="0"
           id="path1723"
           style="fill:none;stroke:#333333;stroke-width:1.07000005;stroke-linecap:butt;stroke-linejoin:round;stroke-miterlimit:10;stroke-dasharray:none;stroke-opacity:1"
           d="m 570.67,263.47 h 2.74" />
        <path
           inkscape:connector-curvature="0"
           id="path1725"
           style="fill:none;stroke:#333333;stroke-width:1.07000005;stroke-linecap:butt;stroke-linejoin:round;stroke-miterlimit:10;stroke-dasharray:none;stroke-opacity:1"
           d="m 570.67,368.8 h 2.74" />
      </g>
      <g
         id="g1727" />
      <g
         id="g1729" />
      <g
         id="g1731" />
      <g
         id="g1733" />
      <g
         id="g1735" />
      <g
         id="g1737" />
      <g
         id="g1739" />
      <g
         id="g1741" />
      <g
         id="g1743" />
      <g
         id="g1745">
        <path
           inkscape:connector-curvature="0"
           id="path1747"
           style="fill:none;stroke:#333333;stroke-width:1.07000005;stroke-linecap:butt;stroke-linejoin:round;stroke-miterlimit:10;stroke-dasharray:none;stroke-opacity:1"
           d="m 606.45,56.97 v 2.74" />
        <path
           inkscape:connector-curvature="0"
           id="path1749"
           style="fill:none;stroke:#333333;stroke-width:1.07000005;stroke-linecap:butt;stroke-linejoin:round;stroke-miterlimit:10;stroke-dasharray:none;stroke-opacity:1"
           d="m 643.44,56.97 v 2.74" />
        <path
           inkscape:connector-curvature="0"
           id="path1751"
           style="fill:none;stroke:#333333;stroke-width:1.07000005;stroke-linecap:butt;stroke-linejoin:round;stroke-miterlimit:10;stroke-dasharray:none;stroke-opacity:1"
           d="m 680.43,56.97 v 2.74" />
        <path
           inkscape:connector-curvature="0"
           id="path1753"
           style="fill:none;stroke:#333333;stroke-width:1.07000005;stroke-linecap:butt;stroke-linejoin:round;stroke-miterlimit:10;stroke-dasharray:none;stroke-opacity:1"
           d="m 717.43,56.97 v 2.74" />
      </g>
      <g
         id="g1755" />
      <g
         id="g1757">
        <text
           id="text1761"
           style="font-variant:normal;font-weight:normal;font-size:16px;font-family:Helvetica;-inkscape-font-specification:Helvetica;writing-mode:lr-tb;fill:#4d4d4d;fill-opacity:1;fill-rule:nonzero;stroke:none"
           transform="matrix(1,0,0,-1,602,43.29)">
          <tspan
             id="tspan1759"
             y="0"
             x="0">6</tspan>
        </text>
        <text
           id="text1765"
           style="font-variant:normal;font-weight:normal;font-size:16px;font-family:Helvetica;-inkscape-font-specification:Helvetica;writing-mode:lr-tb;fill:#4d4d4d;fill-opacity:1;fill-rule:nonzero;stroke:none"
           transform="matrix(1,0,0,-1,638.99,43.29)">
          <tspan
             id="tspan1763"
             y="0"
             x="0">9</tspan>
        </text>
        <text
           id="text1769"
           style="font-variant:normal;font-weight:normal;font-size:16px;font-family:Helvetica;-inkscape-font-specification:Helvetica;writing-mode:lr-tb;fill:#4d4d4d;fill-opacity:1;fill-rule:nonzero;stroke:none"
           transform="matrix(1,0,0,-1,671.54,43.29)">
          <tspan
             id="tspan1767"
             sodipodi:role="line"
             y="0"
             x="0 8.8959999">12</tspan>
        </text>
        <text
           id="text1773"
           style="font-variant:normal;font-weight:normal;font-size:16px;font-family:Helvetica;-inkscape-font-specification:Helvetica;writing-mode:lr-tb;fill:#4d4d4d;fill-opacity:1;fill-rule:nonzero;stroke:none"
           transform="matrix(1,0,0,-1,708.53,43.29)">
          <tspan
             id="tspan1771"
             sodipodi:role="line"
             y="0"
             x="0 8.8959999">15</tspan>
        </text>
      </g>
      <g
         id="g1775" />
      <g
         id="g1777" />
      <g
         id="g1779" />
      <g
         id="g1781" />
      <g
         id="g1783" />
      <g
         id="g1785">
        <text
           id="text1789"
           style="font-variant:normal;font-weight:normal;font-size:20px;font-family:Helvetica;-inkscape-font-specification:Helvetica;writing-mode:lr-tb;fill:#000000;fill-opacity:1;fill-rule:nonzero;stroke:none"
           transform="matrix(1,0,0,-1,626.49,22.52)">
          <tspan
             id="tspan1787"
             sodipodi:role="line"
             y="0"
             x="0 9.8199997 16.280001 27.4 31.84 37.400002 42.959999">Trait (</tspan>
        </text>
        <text
           id="text1793"
           style="font-variant:normal;font-weight:normal;font-size:20px;font-family:Helvetica;-inkscape-font-specification:Helvetica;writing-mode:lr-tb;fill:#000000;fill-opacity:1;fill-rule:nonzero;stroke:none"
           transform="matrix(1,0,0,-1,676.11,22.52)">
          <tspan
             id="tspan1791"
             y="0"
             x="0">Z</tspan>
        </text>
        <text
           id="text1797"
           style="font-variant:normal;font-weight:normal;font-size:14px;font-family:Helvetica;-inkscape-font-specification:Helvetica;writing-mode:lr-tb;fill:#000000;fill-opacity:1;fill-rule:nonzero;stroke:none"
           transform="matrix(1,0,0,-1,688.33,18.86)">
          <tspan
             id="tspan1795"
             y="0"
             x="0">i</tspan>
        </text>
        <text
           id="text1801"
           style="font-variant:normal;font-weight:normal;font-size:20px;font-family:Helvetica;-inkscape-font-specification:Helvetica;writing-mode:lr-tb;fill:#000000;fill-opacity:1;fill-rule:nonzero;stroke:none"
           transform="matrix(1,0,0,-1,691.44,22.52)">
          <tspan
             id="tspan1799"
             y="0"
             x="0">)</tspan>
        </text>
      </g>
      <g
         id="g1803" />
      <g
         id="g1805">
        <text
           id="text1809"
           style="font-variant:normal;font-weight:normal;font-size:20px;font-family:Helvetica;-inkscape-font-specification:Helvetica;writing-mode:lr-tb;fill:#000000;fill-opacity:1;fill-rule:nonzero;stroke:none"
           transform="matrix(0,1,1,0,539.15,74.98)">
          <tspan
             id="tspan1807"
             sodipodi:role="line"
             y="0"
             x="0 13.34 24.059999 34.060001 38.5 45.16 56.279999 67.400002 84.059998 95.18 106.3 111.86 122.98 127.42 132.98 142.98 154.10001 158.53999 169.66 179.66 185.22 189.66 200.78 211.89999 217.46001 228.58 233.02 238.58 243.53999 254.66 261.32001 272.44 283.56 289.12 293.56 304.67999 309.12 314.67999">Environmental selection differential (</tspan>
        </text>
        <text
           id="text1813"
           style="font-variant:normal;font-weight:normal;font-size:20px;font-family:Helvetica;-inkscape-font-specification:Helvetica;writing-mode:lr-tb;fill:#000000;fill-opacity:1;fill-rule:nonzero;stroke:none"
           transform="matrix(0,1,1,0,539.15,396.32)">
          <tspan
             id="tspan1811"
             y="0"
             x="0">S</tspan>
        </text>
        <text
           id="text1817"
           style="font-variant:normal;font-weight:normal;font-size:14px;font-family:Helvetica;-inkscape-font-specification:Helvetica;writing-mode:lr-tb;fill:#000000;fill-opacity:1;fill-rule:nonzero;stroke:none"
           transform="matrix(0,1,1,0,542.81,409.66)">
          <tspan
             id="tspan1815"
             y="0"
             x="0">e</tspan>
        </text>
        <text
           id="text1821"
           style="font-variant:normal;font-weight:normal;font-size:20px;font-family:Helvetica;-inkscape-font-specification:Helvetica;writing-mode:lr-tb;fill:#000000;fill-opacity:1;fill-rule:nonzero;stroke:none"
           transform="matrix(0,1,1,0,539.15,417.44)">
          <tspan
             id="tspan1819"
             y="0"
             x="0">)</tspan>
        </text>
      </g>
      <g
         id="g1823" />
      <g
         id="g1825" />
      <g
         id="g1827" />
      <g
         id="g1829" />
      <g
         id="g1831" />
      <g
         id="g1833" />
      <g
         id="g1835" />
      <g
         id="g1837" />
      <g
         id="g1839" />
      <g
         id="g1841" />
      <g
         id="g1843" />
      <g
         id="g1845" />
      <g
         id="g1847" />
    </g>
  </g>
</svg>
